<svg width="43" height="43" viewBox="0 0 43 43" fill="none" xmlns="http://www.w3.org/2000/svg">
<path d="M1.5 8.16667C1.5 4.48477 4.48477 1.5 8.16667 1.5H34.8333C38.5152 1.5 41.5 4.48477 41.5 8.16667V34.8333C41.5 38.5152 38.5152 41.5 34.8333 41.5H8.16667C4.48477 41.5 1.5 38.5152 1.5 34.8333V8.16667Z" fill="url(#paint0_linear_865_304)"/>
<path d="M10.8333 22.9815L17.3974 29.5L32.1667 14.8333" fill="url(#paint1_linear_865_304)"/>
<path d="M10.8333 22.9815L17.3974 29.5L32.1667 14.8333M8.16667 41.5H34.8333C38.5152 41.5 41.5 38.5152 41.5 34.8333V8.16667C41.5 4.48477 38.5152 1.5 34.8333 1.5H8.16667C4.48477 1.5 1.5 4.48477 1.5 8.16667V34.8333C1.5 38.5152 4.48477 41.5 8.16667 41.5Z" stroke="white" stroke-width="2"/>
<defs>
<linearGradient id="paint0_linear_865_304" x1="-1.2" y1="-10.0493" x2="53.2444" y2="-4.19821" gradientUnits="userSpaceOnUse">
<stop stop-color="#003B6D"/>
<stop offset="1" stop-color="#005297"/>
</linearGradient>
<linearGradient id="paint1_linear_865_304" x1="-1.2" y1="-10.0493" x2="53.2444" y2="-4.19821" gradientUnits="userSpaceOnUse">
<stop stop-color="#003B6D"/>
<stop offset="1" stop-color="#005297"/>
</linearGradient>
</defs>
</svg>
