<svg width="30" height="31" viewBox="0 0 30 31" fill="none" xmlns="http://www.w3.org/2000/svg">
<path d="M0.5 19.306C0.5 18.3457 1.27849 17.5672 2.23881 17.5672H11.194C12.1543 17.5672 12.9328 18.3457 12.9328 19.306V28.2612C12.9328 29.2215 12.1543 30 11.194 30H2.23881C1.27849 30 0.5 29.2215 0.5 28.2612V19.306ZM17.0672 19.306C17.0672 18.3457 17.8457 17.5672 18.806 17.5672H27.7612C28.7215 17.5672 29.5 18.3457 29.5 19.306V28.2612C29.5 29.2215 28.7215 30 27.7612 30H18.806C17.8457 30 17.0672 29.2215 17.0672 28.2612V19.306ZM17.0672 2.73881C17.0672 1.77849 17.8457 1 18.806 1H27.7612C28.7215 1 29.5 1.77849 29.5 2.73881V11.694C29.5 12.6543 28.7215 13.4328 27.7612 13.4328H18.806C17.8457 13.4328 17.0672 12.6543 17.0672 11.694V2.73881ZM0.5 2.73881C0.5 1.77849 1.27849 1 2.23881 1H11.194C12.1543 1 12.9328 1.77849 12.9328 2.73881V11.694C12.9328 12.6543 12.1543 13.4328 11.194 13.4328H2.23881C1.27849 13.4328 0.5 12.6543 0.5 11.694V2.73881Z" stroke="#AAAAAA"/>
</svg>
