<svg width="43" height="43" viewBox="0 0 43 43" fill="none" xmlns="http://www.w3.org/2000/svg">
<path d="M1.5 8.16667C1.5 4.48477 4.48477 1.5 8.16667 1.5H34.8333C38.5152 1.5 41.5 4.48477 41.5 8.16667V34.8333C41.5 38.5152 38.5152 41.5 34.8333 41.5H8.16667C4.48477 41.5 1.5 38.5152 1.5 34.8333V8.16667Z" fill="url(#paint0_linear_491_442)"/>
<path d="M31.1266 12.3815C31.3493 11.8349 30.8043 11.2899 30.2577 11.5126L10.381 19.6105C9.83926 19.8312 9.82412 20.5928 10.3566 20.8348L17.9994 24.3088C18.1461 24.3755 18.2637 24.4931 18.3304 24.6398L21.8044 32.2826C22.0465 32.8151 22.808 32.8 23.0287 32.2583L31.1266 12.3815Z" fill="url(#paint1_linear_491_442)"/>
<path d="M1.5 8.16667C1.5 4.48477 4.48477 1.5 8.16667 1.5H34.8333C38.5152 1.5 41.5 4.48477 41.5 8.16667V34.8333C41.5 38.5152 38.5152 41.5 34.8333 41.5H8.16667C4.48477 41.5 1.5 38.5152 1.5 34.8333V8.16667Z" stroke="white" stroke-width="2" stroke-miterlimit="10"/>
<path d="M31.1266 12.3815C31.3493 11.8349 30.8043 11.2899 30.2577 11.5126L10.381 19.6105C9.83926 19.8312 9.82412 20.5928 10.3566 20.8348L17.9994 24.3088C18.1461 24.3755 18.2637 24.4931 18.3304 24.6398L21.8044 32.2826C22.0465 32.8151 22.808 32.8 23.0287 32.2583L31.1266 12.3815Z" stroke="white" stroke-width="2" stroke-miterlimit="10"/>
<defs>
<linearGradient id="paint0_linear_491_442" x1="-1.2" y1="-10.0493" x2="53.2444" y2="-4.19821" gradientUnits="userSpaceOnUse">
<stop stop-color="#003B6D"/>
<stop offset="1" stop-color="#005297"/>
</linearGradient>
<linearGradient id="paint1_linear_491_442" x1="-1.2" y1="-10.0493" x2="53.2444" y2="-4.19821" gradientUnits="userSpaceOnUse">
<stop stop-color="#003B6D"/>
<stop offset="1" stop-color="#005297"/>
</linearGradient>
</defs>
</svg>
