<svg width="31" height="31" viewBox="0 0 31 31" fill="none" xmlns="http://www.w3.org/2000/svg">
<path d="M0.5 5.5C0.5 2.73858 2.73858 0.5 5.5 0.5H25.5C28.2614 0.5 30.5 2.73858 30.5 5.5V25.5C30.5 28.2614 28.2614 30.5 25.5 30.5H5.5C2.73858 30.5 0.5 28.2614 0.5 25.5V5.5Z" stroke="#AAAAAA" stroke-miterlimit="10"/>
<path d="M22.72 8.66113C22.887 8.25119 22.4782 7.84243 22.0683 8.00944L7.16073 14.0829C6.75444 14.2484 6.74309 14.8196 7.14248 15.0011L12.8745 17.6066C12.9846 17.6566 13.0728 17.7448 13.1228 17.8549L15.7283 23.5869C15.9098 23.9863 16.481 23.975 16.6465 23.5687L22.72 8.66113Z" stroke="#AAAAAA" stroke-miterlimit="10"/>
</svg>
