<svg width="25" height="30" viewBox="0 0 25 30" fill="none" xmlns="http://www.w3.org/2000/svg">
<path fill-rule="evenodd" clip-rule="evenodd" d="M15.1515 5C15.1515 2.23857 17.3562 0 20.0757 0C22.7953 0 25 2.23857 25 5C25 7.76142 22.7953 10 20.0757 10C18.7025 10 17.4615 9.42894 16.5693 8.51021L9.7525 13.2443C9.81544 13.5638 9.84853 13.8937 9.84853 14.2308C9.84853 14.8983 9.71912 15.5364 9.48469 16.1196L16.9593 21.1287C17.8076 20.4242 18.8931 20 20.0757 20C22.7953 20 25 22.2386 25 25C25 27.7614 22.7953 30 20.0757 30C17.3562 30 15.1515 27.7614 15.1515 25C15.1515 24.2768 15.3032 23.5882 15.576 22.9667L8.16187 17.9981C7.297 18.7647 6.16412 19.2308 4.92424 19.2308C2.20466 19.2308 0 16.9921 0 14.2308C0 11.4693 2.20466 9.23077 4.92424 9.23077C6.48809 9.23077 7.88019 9.97088 8.78154 11.1228L15.3881 6.53463C15.2344 6.05038 15.1515 5.5344 15.1515 5Z" fill="white"/>
</svg>
