<svg width="27" height="22" viewBox="0 0 27 22" fill="none" xmlns="http://www.w3.org/2000/svg">
<path d="M25.5 13.5C25.5 13.7761 25.7239 14 26 14C26.2761 14 26.5 13.7761 26.5 13.5H25.5ZM26.5 8.5C26.5 8.22386 26.2761 8 26 8C25.7239 8 25.5 8.22386 25.5 8.5H26.5ZM13.2591 7.57009C13.4359 7.35795 13.4072 7.04267 13.1951 6.86589C12.983 6.68911 12.6677 6.71777 12.4909 6.92991L13.2591 7.57009ZM9.75 11L9.36589 10.6799C9.24169 10.8289 9.21492 11.0364 9.2972 11.2121C9.3795 11.3878 9.55599 11.5 9.75 11.5V11ZM14.125 11L14.5091 11.3201C14.6333 11.1711 14.6601 10.9636 14.5778 10.7879C14.4955 10.6122 14.319 10.5 14.125 10.5V11ZM10.6159 14.4299C10.4391 14.642 10.4678 14.9573 10.6799 15.1341C10.892 15.3109 11.2073 15.2822 11.3841 15.0701L10.6159 14.4299ZM0.5 11C0.5 11.2761 0.723858 11.5 1 11.5C1.27614 11.5 1.5 11.2761 1.5 11H0.5ZM2.46446 2.46446L2.11091 2.11091L2.11091 2.11091L2.46446 2.46446ZM21.4105 2.46446L21.0569 2.81801L21.0569 2.81802L21.4105 2.46446ZM21.4105 19.5355L21.057 19.1819L21.0569 19.182L21.4105 19.5355ZM2.46446 19.5355L2.1109 19.889L2.11091 19.889L2.46446 19.5355ZM1.62446 15.9511C1.59743 15.6762 1.35273 15.4754 1.07792 15.5024C0.803102 15.5294 0.602232 15.7741 0.629264 16.0489L1.62446 15.9511ZM26.5 13.5V8.5H25.5V13.5H26.5ZM12.4909 6.92991L9.36589 10.6799L10.1341 11.3201L13.2591 7.57009L12.4909 6.92991ZM9.75 11.5H14.125V10.5H9.75V11.5ZM13.7409 10.6799L10.6159 14.4299L11.3841 15.0701L14.5091 11.3201L13.7409 10.6799ZM1.5 11C1.5 8.62884 1.50106 6.90077 1.6786 5.58026C1.8542 4.27414 2.19417 3.44187 2.81802 2.81801L2.11091 2.11091C1.27029 2.95153 0.878029 4.03 0.687516 5.44702C0.498938 6.84965 0.5 8.65711 0.5 11H1.5ZM2.81801 2.81802C3.44187 2.19417 4.27414 1.8542 5.58026 1.6786C6.90077 1.50106 8.62884 1.5 11 1.5V0.5C8.65711 0.5 6.84965 0.498938 5.44702 0.687516C4.03 0.878028 2.95153 1.27029 2.11091 2.11091L2.81801 2.81802ZM11 1.5H12.875V0.5H11V1.5ZM12.875 1.5C15.2461 1.5 16.9742 1.50106 18.2947 1.6786C19.6009 1.8542 20.4331 2.19417 21.0569 2.81801L21.7641 2.11092C20.9235 1.27029 19.845 0.878028 18.428 0.687516C17.0253 0.498938 15.2179 0.5 12.875 0.5V1.5ZM21.0569 2.81802C21.6808 3.44187 22.0208 4.27414 22.1964 5.58027C22.3739 6.90077 22.375 8.62884 22.375 11H23.375C23.375 8.65711 23.3761 6.84965 23.1875 5.44702C22.997 4.03 22.6047 2.95153 21.764 2.11091L21.0569 2.81802ZM22.375 11C22.375 13.3711 22.3739 15.0992 22.1964 16.4197C22.0208 17.7259 21.6808 18.5581 21.057 19.1819L21.764 19.8891C22.6047 19.0485 22.997 17.97 23.1875 16.553C23.3761 15.1503 23.375 13.3429 23.375 11H22.375ZM21.0569 19.182C20.4331 19.8058 19.6009 20.1458 18.2947 20.3214C16.9742 20.4989 15.2461 20.5 12.875 20.5V21.5C15.2179 21.5 17.0253 21.5011 18.428 21.3125C19.845 21.122 20.9235 20.7297 21.7641 19.889L21.0569 19.182ZM12.875 20.5H11V21.5H12.875V20.5ZM11 20.5C8.62884 20.5 6.90077 20.4989 5.58027 20.3214C4.27414 20.1458 3.44187 19.8058 2.81802 19.1819L2.11091 19.889C2.95153 20.7297 4.03 21.122 5.44702 21.3125C6.84965 21.5011 8.65711 21.5 11 21.5V20.5ZM2.81802 19.182C2.12269 18.4866 1.78 17.5323 1.62446 15.9511L0.629264 16.0489C0.793426 17.7179 1.17328 18.9514 2.1109 19.889L2.81802 19.182Z" fill="#003B6D"/>
</svg>
