<svg width="54" height="54" viewBox="0 0 54 54" fill="none" xmlns="http://www.w3.org/2000/svg">
<g filter="url(#filter0_d_198_2343)">
<circle cx="27" cy="25" r="25" fill="white"/>
</g>
<path d="M12 25H16.5M16.5 25C16.5 30.799 21.201 35.5 27 35.5M16.5 25C16.5 19.201 21.201 14.5 27 14.5M37.5 25H42M37.5 25C37.5 30.799 32.799 35.5 27 35.5M37.5 25C37.5 19.201 32.799 14.5 27 14.5M27 10V14.5M27 35.5V40M30 25C30 26.6569 28.6569 28 27 28C25.3431 28 24 26.6569 24 25C24 23.3431 25.3431 22 27 22C28.6569 22 30 23.3431 30 25Z" stroke="#1E1E1E" stroke-width="3"/>
<defs>
<filter id="filter0_d_198_2343" x="0" y="0" width="54" height="54" filterUnits="userSpaceOnUse" color-interpolation-filters="sRGB">
<feFlood flood-opacity="0" result="BackgroundImageFix"/>
<feColorMatrix in="SourceAlpha" type="matrix" values="0 0 0 0 0 0 0 0 0 0 0 0 0 0 0 0 0 0 127 0" result="hardAlpha"/>
<feOffset dy="2"/>
<feGaussianBlur stdDeviation="1"/>
<feComposite in2="hardAlpha" operator="out"/>
<feColorMatrix type="matrix" values="0 0 0 0 0.666667 0 0 0 0 0.666667 0 0 0 0 0.666667 0 0 0 1 0"/>
<feBlend mode="normal" in2="BackgroundImageFix" result="effect1_dropShadow_198_2343"/>
<feBlend mode="normal" in="SourceGraphic" in2="effect1_dropShadow_198_2343" result="shape"/>
</filter>
</defs>
</svg>
