<svg width="350" height="270" viewBox="0 0 350 270" fill="none" xmlns="http://www.w3.org/2000/svg">
<g opacity="0.5">
<path d="M174.811 146.584L248.298 221.039C252.66 225.459 252.66 232.691 248.298 237.111C243.936 241.53 236.798 241.53 232.436 237.111L158.949 162.655C154.587 158.236 154.587 151.003 158.949 146.584C163.311 142.164 170.449 142.164 174.811 146.584Z" fill="url(#paint0_linear_275_2103)"/>
<path d="M107.636 52.2002L156.414 101.622C159.31 104.555 159.31 109.356 156.414 112.29C153.519 115.223 148.781 115.223 145.886 112.29L97.1069 62.868C94.2114 59.9343 94.2114 55.1339 97.1069 52.2004C100.002 49.2666 104.74 49.2666 107.636 52.2002Z" fill="url(#paint1_linear_275_2103)"/>
<path d="M219.582 71.4821L281.027 133.737C287.823 140.622 287.823 151.889 281.027 158.774H281.027C274.231 165.659 263.111 165.659 256.315 158.774L194.871 96.5194C188.075 89.6342 188.075 78.3674 194.871 71.4823C201.666 64.5969 212.786 64.5969 219.582 71.4821Z" fill="url(#paint2_linear_275_2103)"/>
<path d="M79.1338 102.091L152.621 176.546C156.983 180.966 156.983 188.198 152.621 192.618C148.259 197.037 141.121 197.037 136.758 192.618L63.2716 118.162C58.9095 113.743 58.9095 106.511 63.2716 102.091C67.6337 97.6713 74.7717 97.6713 79.1338 102.091Z" fill="url(#paint3_linear_275_2103)"/>
<path d="M172.462 104.294L204.952 137.213C207.34 139.632 207.34 143.591 204.952 146.011C202.564 148.43 198.656 148.43 196.268 146.011L163.778 113.092C161.39 110.673 161.39 106.713 163.778 104.294C166.166 101.874 170.074 101.874 172.462 104.294Z" fill="url(#paint4_linear_275_2103)"/>
<path d="M109.278 174.777L141.768 207.696C144.156 210.115 144.156 214.075 141.768 216.494C139.38 218.914 135.472 218.914 133.084 216.494L100.594 183.575C98.2059 181.156 98.2059 177.197 100.594 174.777C102.982 172.358 106.89 172.358 109.278 174.777Z" fill="url(#paint5_linear_275_2103)"/>
</g>
<g clip-path="url(#clip0_275_2103)">
<path d="M193.407 60.2471C193.193 59.2427 192.588 58.3645 191.725 57.8055C190.861 57.2466 189.81 57.0525 188.803 57.2661L86.9176 78.9225C85.914 79.1378 85.0359 79.7399 84.4745 80.5975C83.9131 81.4551 83.7139 82.4988 83.9201 83.5014C87.4328 116.942 93.6925 149.194 102.57 179.629C103.663 183.397 104.799 187.134 105.978 190.842C106.61 192.828 107.252 194.806 107.907 196.775C107.99 197.031 108.073 197.287 108.16 197.542C108.38 198.541 108.987 199.412 109.848 199.967C110.71 200.521 111.756 200.714 112.76 200.502L214.645 178.846C215.653 178.631 216.534 178.026 217.095 177.165C217.657 176.303 217.852 175.254 217.639 174.25L217.631 174.212C205.768 138.658 197.62 100.328 193.415 60.2816L193.407 60.2471Z" fill="#E6E6E6"/>
<path d="M193.407 60.2471C193.193 59.2427 192.588 58.3645 191.725 57.8055C190.861 57.2466 189.81 57.0525 188.803 57.2661L86.9176 78.9225C85.914 79.1378 85.0359 79.7399 84.4745 80.5975C83.9131 81.4551 83.7139 82.4988 83.9201 83.5014C87.4328 116.942 93.6925 149.194 102.57 179.629C103.663 183.397 104.799 187.134 105.978 190.842C106.61 192.828 107.252 194.806 107.907 196.775C107.99 197.031 108.073 197.287 108.16 197.542C108.38 198.541 108.987 199.412 109.848 199.967C110.71 200.521 111.756 200.714 112.76 200.502L214.645 178.846C215.653 178.631 216.534 178.026 217.095 177.165C217.657 176.303 217.852 175.254 217.639 174.25L217.631 174.212C205.768 138.658 197.62 100.328 193.415 60.2816L193.407 60.2471ZM216.953 174.417C217.121 175.237 216.957 176.09 216.497 176.79C216.038 177.49 215.319 177.982 214.499 178.157L112.614 199.813C111.789 199.987 110.93 199.828 110.224 199.371C109.518 198.914 109.022 198.196 108.847 197.374L108.838 197.336C108.767 197.121 108.696 196.902 108.625 196.687C107.938 194.63 107.267 192.563 106.61 190.488C105.458 186.849 104.342 183.18 103.264 179.482C94.3904 149.063 88.1316 116.833 84.6219 83.4062L84.6145 83.3718C84.4411 82.5498 84.6016 81.6924 85.0607 80.9875C85.5199 80.2826 86.2403 79.7877 87.064 79.6113L188.949 57.9549C189.771 57.7806 190.627 57.9374 191.333 58.3912C192.038 58.8449 192.534 59.5587 192.713 60.3767C196.925 100.454 205.081 138.826 216.953 174.417Z" fill="#E6E6E6"/>
<path d="M101.429 112.66C101.167 112.717 100.938 112.874 100.792 113.099C100.647 113.323 100.596 113.596 100.651 113.857C100.707 114.119 100.864 114.347 101.089 114.493C101.313 114.639 101.586 114.69 101.849 114.635L184.646 97.0357C184.907 96.9793 185.136 96.8216 185.282 96.5972C185.428 96.3728 185.479 96.1 185.423 95.8387C185.367 95.5773 185.21 95.3487 184.986 95.2029C184.761 95.0572 184.488 95.0063 184.226 95.0613L101.429 112.66Z" fill="#A2A2A2"/>
<path d="M102.688 118.584C102.426 118.64 102.197 118.798 102.051 119.023C101.905 119.247 101.854 119.52 101.91 119.781C101.965 120.043 102.123 120.272 102.347 120.417C102.572 120.563 102.845 120.614 103.108 120.559L159.316 108.611C159.578 108.555 159.807 108.397 159.953 108.173C160.099 107.949 160.149 107.676 160.094 107.414C160.038 107.153 159.881 106.924 159.656 106.778C159.432 106.632 159.158 106.582 158.896 106.637L102.688 118.584Z" fill="#A2A2A2"/>
<path d="M103.919 124.374C103.657 124.43 103.427 124.588 103.282 124.812C103.136 125.037 103.085 125.31 103.141 125.571C103.196 125.833 103.353 126.062 103.578 126.207C103.803 126.353 104.076 126.404 104.338 126.349L187.135 108.749C187.397 108.693 187.627 108.536 187.773 108.311C187.918 108.087 187.969 107.814 187.914 107.552C187.858 107.291 187.701 107.062 187.476 106.916C187.251 106.771 186.978 106.72 186.716 106.775L103.919 124.374Z" fill="#A2A2A2"/>
<path d="M105.178 130.298C104.916 130.354 104.687 130.512 104.541 130.736C104.396 130.961 104.345 131.234 104.4 131.495C104.456 131.756 104.613 131.985 104.838 132.131C105.062 132.276 105.335 132.327 105.598 132.272L161.805 120.325C162.067 120.269 162.296 120.111 162.442 119.887C162.588 119.662 162.638 119.389 162.583 119.128C162.527 118.867 162.37 118.638 162.146 118.492C161.921 118.347 161.648 118.296 161.386 118.351L105.178 130.298Z" fill="#A2A2A2"/>
<path d="M108.53 146.069C108.268 146.125 108.039 146.283 107.894 146.507C107.748 146.732 107.697 147.005 107.753 147.266C107.808 147.527 107.965 147.756 108.19 147.902C108.414 148.047 108.688 148.098 108.95 148.043L191.747 130.444C192.009 130.388 192.238 130.23 192.383 130.006C192.529 129.781 192.58 129.509 192.524 129.247C192.469 128.986 192.311 128.757 192.087 128.612C191.863 128.466 191.589 128.415 191.327 128.47L108.53 146.069Z" fill="#A2A2A2"/>
<path d="M109.789 151.993C109.527 152.049 109.298 152.207 109.152 152.431C109.006 152.656 108.955 152.929 109.011 153.19C109.067 153.452 109.224 153.68 109.449 153.826C109.673 153.972 109.947 154.022 110.209 153.967L166.417 142.02C166.679 141.964 166.908 141.806 167.054 141.582C167.2 141.357 167.251 141.084 167.195 140.823C167.139 140.561 166.982 140.332 166.758 140.187C166.533 140.041 166.259 139.99 165.997 140.045L109.789 151.993Z" fill="#A2A2A2"/>
<path d="M111.02 157.783C110.758 157.839 110.529 157.997 110.383 158.221C110.237 158.445 110.186 158.718 110.242 158.98C110.297 159.241 110.455 159.47 110.679 159.616C110.904 159.762 111.177 159.812 111.44 159.757L194.237 142.158C194.499 142.102 194.728 141.944 194.874 141.72C195.02 141.495 195.07 141.222 195.015 140.961C194.959 140.699 194.802 140.471 194.577 140.325C194.353 140.179 194.079 140.128 193.817 140.184L111.02 157.783Z" fill="#A2A2A2"/>
<path d="M112.279 163.707C112.017 163.763 111.788 163.921 111.643 164.145C111.497 164.369 111.446 164.642 111.502 164.904C111.557 165.165 111.714 165.394 111.939 165.539C112.163 165.685 112.437 165.736 112.699 165.681L168.907 153.734C169.169 153.677 169.398 153.52 169.543 153.295C169.689 153.071 169.74 152.798 169.684 152.537C169.629 152.275 169.471 152.047 169.247 151.901C169.023 151.755 168.749 151.704 168.487 151.759L112.279 163.707Z" fill="#A2A2A2"/>
<path d="M115.206 96.9202L99.3918 100.282C99.187 100.325 98.9733 100.285 98.7978 100.172C98.6223 100.058 98.4992 99.8796 98.4555 99.6753L97.9185 97.1486C97.8753 96.9443 97.9151 96.7312 98.0293 96.556C98.1434 96.3807 98.3225 96.2578 98.5273 96.214L114.341 92.8526C114.546 92.8093 114.76 92.8488 114.935 92.9625C115.111 93.0761 115.234 93.2546 115.278 93.4588L115.815 95.9856C115.858 96.1899 115.818 96.403 115.704 96.5782C115.59 96.7534 115.411 96.8764 115.206 96.9202Z" fill="url(#paint6_linear_275_2103)"/>
<path d="M187.419 166.517L182.915 169.143C182.164 169.581 181.413 170.019 180.662 170.456C179.967 170.861 179.22 171.325 178.397 171.389C177.828 171.434 177.13 171.25 176.837 170.719C176.56 170.217 176.786 169.582 177.137 169.175C178.107 168.052 179.758 168.634 180.77 169.368C182.008 170.266 182.88 171.58 184.067 172.543C185.125 173.408 186.364 174.024 187.694 174.348C190.331 174.967 193.23 174.225 195.018 172.126C197.154 169.619 196.691 166.16 196.073 163.187C196.04 163.054 195.956 162.939 195.84 162.866C195.723 162.794 195.583 162.769 195.449 162.798C195.315 162.826 195.197 162.906 195.12 163.019C195.043 163.133 195.013 163.272 195.037 163.407C195.597 166.101 196.145 169.433 194.042 171.641C192.027 173.755 188.838 173.986 186.302 172.728C184.889 172.027 183.879 170.936 182.81 169.812C181.766 168.714 180.544 167.694 178.981 167.514C178.307 167.42 177.621 167.561 177.039 167.913C176.457 168.266 176.015 168.808 175.787 169.447C175.685 169.748 175.648 170.067 175.679 170.383C175.709 170.699 175.808 171.005 175.966 171.28C176.125 171.555 176.341 171.793 176.599 171.978C176.857 172.164 177.152 172.292 177.464 172.354C179.326 172.799 181.061 171.446 182.576 170.563L187.906 167.455C188.492 167.114 188.01 166.173 187.419 166.517Z" fill="url(#paint7_linear_275_2103)"/>
<path d="M225.22 89.3974C225.006 88.393 224.401 87.5148 223.538 86.9558C222.674 86.3969 221.624 86.2028 220.616 86.4164L118.731 108.073C117.727 108.288 116.849 108.89 116.288 109.748C115.726 110.605 115.527 111.649 115.733 112.652C119.246 146.092 125.506 178.344 134.383 208.78C135.476 212.547 136.612 216.284 137.791 219.992C138.423 221.978 139.066 223.956 139.72 225.925C139.803 226.181 139.887 226.437 139.973 226.692C140.193 227.691 140.8 228.563 141.661 229.117C142.523 229.672 143.569 229.864 144.573 229.652L246.459 207.996C247.466 207.781 248.347 207.177 248.908 206.315C249.47 205.453 249.665 204.405 249.452 203.4L249.444 203.362C237.581 167.809 229.433 129.478 225.228 89.4319L225.22 89.3974Z" fill="white"/>
<path d="M225.22 89.3974C225.006 88.393 224.401 87.5148 223.538 86.9558C222.674 86.3969 221.624 86.2028 220.616 86.4164L118.731 108.073C117.727 108.288 116.849 108.89 116.288 109.748C115.726 110.605 115.527 111.649 115.733 112.652C119.246 146.092 125.506 178.344 134.383 208.78C135.476 212.547 136.612 216.284 137.791 219.992C138.423 221.978 139.066 223.956 139.72 225.925C139.803 226.181 139.887 226.437 139.973 226.692C140.193 227.691 140.8 228.563 141.661 229.117C142.523 229.672 143.569 229.864 144.573 229.652L246.459 207.996C247.466 207.781 248.347 207.177 248.908 206.315C249.47 205.453 249.665 204.405 249.452 203.4L249.444 203.362C237.581 167.809 229.433 129.478 225.228 89.4319L225.22 89.3974ZM248.766 203.567C248.934 204.387 248.77 205.24 248.311 205.94C247.851 206.641 247.133 207.132 246.312 207.307L144.427 228.964C143.603 229.137 142.743 228.978 142.037 228.521C141.331 228.064 140.836 227.346 140.66 226.524L140.652 226.487C140.581 226.271 140.509 226.053 140.438 225.837C139.751 223.78 139.08 221.714 138.423 219.638C137.271 215.999 136.155 212.33 135.077 208.632C126.204 178.214 119.945 145.983 116.435 112.557L116.428 112.522C116.254 111.7 116.415 110.843 116.874 110.138C117.333 109.433 118.053 108.938 118.877 108.762L220.762 87.1052C221.584 86.9309 222.441 87.0877 223.146 87.5415C223.851 87.9952 224.347 88.709 224.526 89.527C228.738 129.605 236.894 167.976 248.766 203.567Z" fill="#AAAAAA"/>
<path d="M133.242 141.811C132.98 141.867 132.751 142.025 132.606 142.249C132.46 142.474 132.409 142.746 132.465 143.008C132.52 143.269 132.677 143.498 132.902 143.643C133.126 143.789 133.4 143.84 133.662 143.785L216.459 126.186C216.721 126.13 216.95 125.972 217.095 125.748C217.241 125.523 217.292 125.25 217.236 124.989C217.181 124.728 217.023 124.499 216.799 124.353C216.575 124.208 216.301 124.157 216.039 124.212L133.242 141.811Z" fill="#E6E6E6"/>
<path d="M134.501 147.735C134.239 147.791 134.01 147.948 133.864 148.173C133.718 148.397 133.667 148.67 133.723 148.932C133.779 149.193 133.936 149.422 134.161 149.568C134.385 149.713 134.659 149.764 134.921 149.709L191.129 137.762C191.391 137.705 191.62 137.548 191.766 137.323C191.912 137.099 191.963 136.826 191.907 136.564C191.851 136.303 191.694 136.074 191.469 135.928C191.245 135.783 190.971 135.732 190.709 135.787L134.501 147.735Z" fill="#E6E6E6"/>
<path d="M135.732 153.524C135.47 153.581 135.241 153.738 135.095 153.963C134.949 154.187 134.898 154.46 134.954 154.722C135.009 154.983 135.167 155.212 135.391 155.358C135.616 155.503 135.889 155.554 136.152 155.499L218.949 137.9C219.211 137.844 219.44 137.686 219.586 137.461C219.732 137.237 219.782 136.964 219.727 136.703C219.671 136.441 219.514 136.212 219.289 136.067C219.065 135.921 218.791 135.87 218.529 135.925L135.732 153.524Z" fill="#E6E6E6"/>
<path d="M136.991 159.448C136.729 159.505 136.5 159.662 136.354 159.887C136.209 160.111 136.158 160.384 136.214 160.645C136.269 160.907 136.426 161.135 136.651 161.281C136.875 161.427 137.149 161.478 137.411 161.423L193.619 149.475C193.881 149.419 194.109 149.261 194.255 149.037C194.401 148.812 194.452 148.54 194.396 148.278C194.341 148.017 194.183 147.788 193.959 147.643C193.734 147.497 193.461 147.446 193.199 147.501L136.991 159.448Z" fill="#E6E6E6"/>
<path d="M140.343 175.219C140.081 175.276 139.852 175.433 139.707 175.658C139.561 175.882 139.51 176.155 139.566 176.416C139.621 176.678 139.779 176.906 140.003 177.052C140.227 177.198 140.501 177.249 140.763 177.194L223.56 159.595C223.822 159.538 224.051 159.381 224.197 159.156C224.342 158.932 224.393 158.659 224.337 158.398C224.282 158.136 224.125 157.908 223.9 157.762C223.676 157.616 223.402 157.565 223.14 157.62L140.343 175.219Z" fill="#E6E6E6"/>
<path d="M141.603 181.143C141.34 181.199 141.111 181.357 140.965 181.581C140.819 181.806 140.769 182.079 140.824 182.34C140.88 182.602 141.037 182.831 141.262 182.976C141.486 183.122 141.76 183.173 142.022 183.118L198.23 171.17C198.492 171.114 198.721 170.956 198.867 170.732C199.013 170.507 199.064 170.234 199.008 169.973C198.953 169.711 198.795 169.483 198.571 169.337C198.346 169.191 198.073 169.141 197.81 169.196L141.603 181.143Z" fill="#E6E6E6"/>
<path d="M142.833 186.933C142.571 186.989 142.342 187.147 142.196 187.371C142.05 187.596 141.999 187.869 142.055 188.13C142.111 188.392 142.268 188.62 142.492 188.766C142.717 188.912 142.991 188.963 143.253 188.907L226.05 171.308C226.312 171.252 226.541 171.094 226.687 170.87C226.833 170.646 226.884 170.373 226.828 170.111C226.772 169.85 226.615 169.621 226.391 169.475C226.166 169.329 225.892 169.279 225.63 169.334L142.833 186.933Z" fill="#E6E6E6"/>
<path d="M144.092 192.857C143.83 192.913 143.601 193.071 143.456 193.295C143.31 193.52 143.259 193.793 143.315 194.054C143.37 194.315 143.528 194.544 143.752 194.69C143.977 194.835 144.25 194.886 144.512 194.831L200.72 182.884C200.982 182.828 201.211 182.67 201.356 182.445C201.502 182.221 201.553 181.948 201.497 181.687C201.442 181.425 201.285 181.197 201.06 181.051C200.836 180.905 200.562 180.854 200.3 180.91L144.092 192.857Z" fill="#E6E6E6"/>
<path d="M147.019 126.07L131.205 129.432C131 129.475 130.787 129.436 130.611 129.322C130.435 129.208 130.312 129.03 130.269 128.826L129.732 126.299C129.688 126.095 129.728 125.881 129.842 125.706C129.957 125.531 130.136 125.408 130.34 125.364L146.154 122.003C146.359 121.96 146.573 121.999 146.748 122.113C146.924 122.226 147.047 122.405 147.091 122.609L147.628 125.136C147.671 125.34 147.631 125.553 147.517 125.729C147.403 125.904 147.224 126.027 147.019 126.07Z" fill="url(#paint8_linear_275_2103)"/>
<path d="M219.232 195.668L214.728 198.294C213.977 198.731 213.226 199.169 212.475 199.607C211.78 200.011 211.033 200.475 210.21 200.54C209.641 200.584 208.943 200.401 208.65 199.87C208.373 199.367 208.599 198.732 208.951 198.325C209.92 197.203 211.571 197.785 212.583 198.519C213.821 199.417 214.693 200.73 215.88 201.693C216.938 202.558 218.177 203.175 219.507 203.498C222.144 204.117 225.043 203.376 226.831 201.276C228.967 198.769 228.504 195.31 227.886 192.337C227.853 192.204 227.77 192.089 227.653 192.017C227.537 191.944 227.396 191.919 227.262 191.948C227.128 191.977 227.01 192.056 226.933 192.17C226.856 192.283 226.826 192.422 226.85 192.557C227.41 195.252 227.958 198.584 225.855 200.791C223.84 202.906 220.651 203.136 218.115 201.879C216.702 201.178 215.692 200.087 214.623 198.962C213.58 197.864 212.357 196.845 210.794 196.664C210.12 196.57 209.434 196.711 208.852 197.064C208.27 197.416 207.828 197.958 207.6 198.598C207.498 198.898 207.461 199.217 207.492 199.533C207.523 199.849 207.621 200.155 207.779 200.43C207.938 200.705 208.154 200.943 208.412 201.129C208.67 201.314 208.965 201.442 209.277 201.505C211.14 201.949 212.875 200.596 214.389 199.713L219.72 196.605C220.306 196.264 219.824 195.323 219.232 195.668Z" fill="url(#paint9_linear_275_2103)"/>
</g>
<defs>
<linearGradient id="paint0_linear_275_2103" x1="149.205" y1="115.217" x2="279.763" y2="129.065" gradientUnits="userSpaceOnUse">
<stop stop-color="#003B6D"/>
<stop offset="1" stop-color="#005297"/>
</linearGradient>
<linearGradient id="paint1_linear_275_2103" x1="90.6388" y1="31.3797" x2="177.3" y2="40.5719" gradientUnits="userSpaceOnUse">
<stop stop-color="#003B6D"/>
<stop offset="1" stop-color="#005297"/>
</linearGradient>
<linearGradient id="paint2_linear_275_2103" x1="183.27" y1="38.1322" x2="314.451" y2="52.0467" gradientUnits="userSpaceOnUse">
<stop stop-color="#003B6D"/>
<stop offset="1" stop-color="#005297"/>
</linearGradient>
<linearGradient id="paint3_linear_275_2103" x1="53.5273" y1="70.7241" x2="184.086" y2="84.5726" gradientUnits="userSpaceOnUse">
<stop stop-color="#003B6D"/>
<stop offset="1" stop-color="#005297"/>
</linearGradient>
<linearGradient id="paint4_linear_275_2103" x1="158.966" y1="89.3863" x2="219.902" y2="95.8499" gradientUnits="userSpaceOnUse">
<stop stop-color="#003B6D"/>
<stop offset="1" stop-color="#005297"/>
</linearGradient>
<linearGradient id="paint5_linear_275_2103" x1="95.7819" y1="159.87" x2="156.718" y2="166.333" gradientUnits="userSpaceOnUse">
<stop stop-color="#003B6D"/>
<stop offset="1" stop-color="#005297"/>
</linearGradient>
<linearGradient id="paint6_linear_275_2103" x1="96.3333" y1="95.4529" x2="118.005" y2="100.312" gradientUnits="userSpaceOnUse">
<stop stop-color="#003B6D"/>
<stop offset="1" stop-color="#005297"/>
</linearGradient>
<linearGradient id="paint7_linear_275_2103" x1="172.933" y1="164.501" x2="201.783" y2="164.729" gradientUnits="userSpaceOnUse">
<stop stop-color="#003B6D"/>
<stop offset="1" stop-color="#005297"/>
</linearGradient>
<linearGradient id="paint8_linear_275_2103" x1="128.147" y1="124.603" x2="149.818" y2="129.463" gradientUnits="userSpaceOnUse">
<stop stop-color="#003B6D"/>
<stop offset="1" stop-color="#005297"/>
</linearGradient>
<linearGradient id="paint9_linear_275_2103" x1="204.746" y1="193.651" x2="233.596" y2="193.879" gradientUnits="userSpaceOnUse">
<stop stop-color="#003B6D"/>
<stop offset="1" stop-color="#005297"/>
</linearGradient>
<clipPath id="clip0_275_2103">
<rect width="183.161" height="191.651" fill="white" transform="translate(66 77) rotate(-12)"/>
</clipPath>
</defs>
</svg>
