<svg width="145" height="45" viewBox="0 0 145 45" fill="none" xmlns="http://www.w3.org/2000/svg">
<g filter="url(#filter0_d_252_694)">
<rect x="2.5" y="1" width="140" height="39" rx="4.5" stroke="#003B6D" shape-rendering="crispEdges"/>
<path d="M36.6406 25.1201V26.5H29.8643V25.1201H36.6406ZM30.207 13.7031V26.5H28.5107V13.7031H30.207ZM35.7441 19.2051V20.585H29.8643V19.2051H35.7441ZM36.5527 13.7031V15.0918H29.8643V13.7031H36.5527ZM44.3135 24.6543V13H45.9482V26.5H44.4541L44.3135 24.6543ZM37.915 21.8506V21.666C37.915 20.9395 38.0029 20.2803 38.1787 19.6885C38.3604 19.0908 38.6152 18.5781 38.9434 18.1504C39.2773 17.7227 39.6729 17.3945 40.1299 17.166C40.5928 16.9316 41.1084 16.8145 41.6768 16.8145C42.2744 16.8145 42.7959 16.9199 43.2412 17.1309C43.6924 17.3359 44.0732 17.6377 44.3838 18.0361C44.7002 18.4287 44.9492 18.9033 45.1309 19.46C45.3125 20.0166 45.4385 20.6465 45.5088 21.3496V22.1582C45.4443 22.8555 45.3184 23.4824 45.1309 24.0391C44.9492 24.5957 44.7002 25.0703 44.3838 25.4629C44.0732 25.8555 43.6924 26.1572 43.2412 26.3682C42.79 26.5732 42.2627 26.6758 41.6592 26.6758C41.1025 26.6758 40.5928 26.5557 40.1299 26.3154C39.6729 26.0752 39.2773 25.7383 38.9434 25.3047C38.6152 24.8711 38.3604 24.3613 38.1787 23.7754C38.0029 23.1836 37.915 22.542 37.915 21.8506ZM39.5498 21.666V21.8506C39.5498 22.3252 39.5967 22.7705 39.6904 23.1865C39.79 23.6025 39.9424 23.9688 40.1475 24.2852C40.3525 24.6016 40.6133 24.8506 40.9297 25.0322C41.2461 25.208 41.624 25.2959 42.0635 25.2959C42.6025 25.2959 43.0449 25.1816 43.3906 24.9531C43.7422 24.7246 44.0234 24.4229 44.2344 24.0479C44.4453 23.6729 44.6094 23.2656 44.7266 22.8262V20.708C44.6562 20.3857 44.5537 20.0752 44.4189 19.7764C44.29 19.4717 44.1201 19.2021 43.9092 18.9678C43.7041 18.7275 43.4492 18.5371 43.1445 18.3965C42.8457 18.2559 42.4912 18.1855 42.0811 18.1855C41.6357 18.1855 41.252 18.2793 40.9297 18.4668C40.6133 18.6484 40.3525 18.9004 40.1475 19.2227C39.9424 19.5391 39.79 19.9082 39.6904 20.3301C39.5967 20.7461 39.5498 21.1914 39.5498 21.666ZM50.2461 16.9902V26.5H48.6113V16.9902H50.2461ZM48.4883 14.4678C48.4883 14.2041 48.5674 13.9814 48.7256 13.7998C48.8896 13.6182 49.1299 13.5273 49.4463 13.5273C49.7568 13.5273 49.9941 13.6182 50.1582 13.7998C50.3281 13.9814 50.4131 14.2041 50.4131 14.4678C50.4131 14.7197 50.3281 14.9365 50.1582 15.1182C49.9941 15.2939 49.7568 15.3818 49.4463 15.3818C49.1299 15.3818 48.8896 15.2939 48.7256 15.1182C48.5674 14.9365 48.4883 14.7197 48.4883 14.4678ZM56.8379 16.9902V18.2383H51.6963V16.9902H56.8379ZM53.4365 14.6787H55.0625V24.1445C55.0625 24.4668 55.1123 24.71 55.2119 24.874C55.3115 25.0381 55.4404 25.1465 55.5986 25.1992C55.7568 25.252 55.9268 25.2783 56.1084 25.2783C56.2432 25.2783 56.3838 25.2666 56.5303 25.2432C56.6826 25.2139 56.7969 25.1904 56.873 25.1729L56.8818 26.5C56.7529 26.541 56.583 26.5791 56.3721 26.6143C56.167 26.6553 55.918 26.6758 55.625 26.6758C55.2266 26.6758 54.8604 26.5967 54.5264 26.4385C54.1924 26.2803 53.9258 26.0166 53.7266 25.6475C53.5332 25.2725 53.4365 24.7686 53.4365 24.1357V14.6787ZM64.3525 24.874V19.9785C64.3525 19.6035 64.2764 19.2783 64.124 19.0029C63.9775 18.7217 63.7549 18.5049 63.4561 18.3525C63.1572 18.2002 62.7881 18.124 62.3486 18.124C61.9385 18.124 61.5781 18.1943 61.2676 18.335C60.9629 18.4756 60.7227 18.6602 60.5469 18.8887C60.377 19.1172 60.292 19.3633 60.292 19.627H58.666C58.666 19.2871 58.7539 18.9502 58.9297 18.6162C59.1055 18.2822 59.3574 17.9805 59.6855 17.7109C60.0195 17.4355 60.418 17.2188 60.8809 17.0605C61.3496 16.8965 61.8711 16.8145 62.4453 16.8145C63.1367 16.8145 63.7461 16.9316 64.2734 17.166C64.8066 17.4004 65.2227 17.7549 65.5215 18.2295C65.8262 18.6982 65.9785 19.2871 65.9785 19.9961V24.4258C65.9785 24.7422 66.0049 25.0791 66.0576 25.4365C66.1162 25.7939 66.2012 26.1016 66.3125 26.3594V26.5H64.6162C64.5342 26.3125 64.4697 26.0635 64.4229 25.7529C64.376 25.4365 64.3525 25.1436 64.3525 24.874ZM64.6338 20.7344L64.6514 21.877H63.0078C62.5449 21.877 62.1318 21.915 61.7686 21.9912C61.4053 22.0615 61.1006 22.1699 60.8545 22.3164C60.6084 22.4629 60.4209 22.6475 60.292 22.8701C60.1631 23.0869 60.0986 23.3418 60.0986 23.6348C60.0986 23.9336 60.166 24.2061 60.3008 24.4521C60.4355 24.6982 60.6377 24.8945 60.9072 25.041C61.1826 25.1816 61.5195 25.252 61.918 25.252C62.416 25.252 62.8555 25.1465 63.2363 24.9355C63.6172 24.7246 63.9189 24.4668 64.1416 24.1621C64.3701 23.8574 64.4932 23.5615 64.5107 23.2744L65.2051 24.0566C65.1641 24.3027 65.0527 24.5752 64.8711 24.874C64.6895 25.1729 64.4463 25.46 64.1416 25.7354C63.8428 26.0049 63.4854 26.2305 63.0693 26.4121C62.6592 26.5879 62.1963 26.6758 61.6807 26.6758C61.0361 26.6758 60.4707 26.5498 59.9844 26.2979C59.5039 26.0459 59.1289 25.709 58.8594 25.2871C58.5957 24.8594 58.4639 24.3818 58.4639 23.8545C58.4639 23.3447 58.5635 22.8965 58.7627 22.5098C58.9619 22.1172 59.249 21.792 59.624 21.5342C59.999 21.2705 60.4502 21.0713 60.9775 20.9365C61.5049 20.8018 62.0938 20.7344 62.7441 20.7344H64.6338ZM70.1621 18.4844V26.5H68.5361V16.9902H70.1182L70.1621 18.4844ZM73.1328 16.9375L73.124 18.4492C72.9893 18.4199 72.8604 18.4023 72.7373 18.3965C72.6201 18.3848 72.4854 18.3789 72.333 18.3789C71.958 18.3789 71.627 18.4375 71.3398 18.5547C71.0527 18.6719 70.8096 18.8359 70.6104 19.0469C70.4111 19.2578 70.2529 19.5098 70.1357 19.8027C70.0244 20.0898 69.9512 20.4062 69.916 20.752L69.459 21.0156C69.459 20.4414 69.5146 19.9023 69.626 19.3984C69.7432 18.8945 69.9219 18.4492 70.1621 18.0625C70.4023 17.6699 70.707 17.3652 71.0762 17.1484C71.4512 16.9258 71.8965 16.8145 72.4121 16.8145C72.5293 16.8145 72.6641 16.8291 72.8164 16.8584C72.9688 16.8818 73.0742 16.9082 73.1328 16.9375ZM80.7266 18.8184V30.1562H79.0918V16.9902H80.5859L80.7266 18.8184ZM87.1338 21.666V21.8506C87.1338 22.542 87.0518 23.1836 86.8877 23.7754C86.7236 24.3613 86.4834 24.8711 86.167 25.3047C85.8564 25.7383 85.4727 26.0752 85.0156 26.3154C84.5586 26.5557 84.0342 26.6758 83.4424 26.6758C82.8389 26.6758 82.3057 26.5762 81.8428 26.377C81.3799 26.1777 80.9873 25.8877 80.665 25.5068C80.3428 25.126 80.085 24.6689 79.8916 24.1357C79.7041 23.6025 79.5752 23.002 79.5049 22.334V21.3496C79.5752 20.6465 79.707 20.0166 79.9004 19.46C80.0938 18.9033 80.3486 18.4287 80.665 18.0361C80.9873 17.6377 81.377 17.3359 81.834 17.1309C82.291 16.9199 82.8184 16.8145 83.416 16.8145C84.0137 16.8145 84.5439 16.9316 85.0068 17.166C85.4697 17.3945 85.8594 17.7227 86.1758 18.1504C86.4922 18.5781 86.7295 19.0908 86.8877 19.6885C87.0518 20.2803 87.1338 20.9395 87.1338 21.666ZM85.499 21.8506V21.666C85.499 21.1914 85.4492 20.7461 85.3496 20.3301C85.25 19.9082 85.0947 19.5391 84.8838 19.2227C84.6787 18.9004 84.415 18.6484 84.0928 18.4668C83.7705 18.2793 83.3867 18.1855 82.9414 18.1855C82.5312 18.1855 82.1738 18.2559 81.8691 18.3965C81.5703 18.5371 81.3154 18.7275 81.1045 18.9678C80.8936 19.2021 80.7207 19.4717 80.5859 19.7764C80.457 20.0752 80.3604 20.3857 80.2959 20.708V22.9844C80.4131 23.3945 80.5771 23.7812 80.7881 24.1445C80.999 24.502 81.2803 24.792 81.6318 25.0146C81.9834 25.2314 82.4258 25.3398 82.959 25.3398C83.3984 25.3398 83.7764 25.249 84.0928 25.0674C84.415 24.8799 84.6787 24.625 84.8838 24.3027C85.0947 23.9805 85.25 23.6113 85.3496 23.1953C85.4492 22.7734 85.499 22.3252 85.499 21.8506ZM93.1543 26.6758C92.4922 26.6758 91.8916 26.5645 91.3525 26.3418C90.8193 26.1133 90.3594 25.7939 89.9727 25.3838C89.5918 24.9736 89.2988 24.4873 89.0938 23.9248C88.8887 23.3623 88.7861 22.7471 88.7861 22.0791V21.71C88.7861 20.9365 88.9004 20.248 89.1289 19.6445C89.3574 19.0352 89.668 18.5195 90.0605 18.0977C90.4531 17.6758 90.8984 17.3564 91.3965 17.1396C91.8945 16.9229 92.4102 16.8145 92.9434 16.8145C93.623 16.8145 94.209 16.9316 94.7012 17.166C95.1992 17.4004 95.6064 17.7285 95.9229 18.1504C96.2393 18.5664 96.4736 19.0586 96.626 19.627C96.7783 20.1895 96.8545 20.8047 96.8545 21.4727V22.2021H89.7529V20.875H95.2285V20.752C95.2051 20.3301 95.1172 19.9199 94.9648 19.5215C94.8184 19.123 94.584 18.7949 94.2617 18.5371C93.9395 18.2793 93.5 18.1504 92.9434 18.1504C92.5742 18.1504 92.2344 18.2295 91.9238 18.3877C91.6133 18.54 91.3467 18.7686 91.124 19.0732C90.9014 19.3779 90.7285 19.75 90.6055 20.1895C90.4824 20.6289 90.4209 21.1357 90.4209 21.71V22.0791C90.4209 22.5303 90.4824 22.9551 90.6055 23.3535C90.7344 23.7461 90.9189 24.0918 91.1592 24.3906C91.4053 24.6895 91.7012 24.9238 92.0469 25.0938C92.3984 25.2637 92.7969 25.3486 93.2422 25.3486C93.8164 25.3486 94.3027 25.2314 94.7012 24.9971C95.0996 24.7627 95.4482 24.4492 95.7471 24.0566L96.7314 24.8389C96.5264 25.1494 96.2656 25.4453 95.9492 25.7266C95.6328 26.0078 95.2432 26.2363 94.7803 26.4121C94.3232 26.5879 93.7812 26.6758 93.1543 26.6758ZM100.379 18.4844V26.5H98.7529V16.9902H100.335L100.379 18.4844ZM103.35 16.9375L103.341 18.4492C103.206 18.4199 103.077 18.4023 102.954 18.3965C102.837 18.3848 102.702 18.3789 102.55 18.3789C102.175 18.3789 101.844 18.4375 101.557 18.5547C101.27 18.6719 101.026 18.8359 100.827 19.0469C100.628 19.2578 100.47 19.5098 100.353 19.8027C100.241 20.0898 100.168 20.4062 100.133 20.752L99.6758 21.0156C99.6758 20.4414 99.7314 19.9023 99.8428 19.3984C99.96 18.8945 100.139 18.4492 100.379 18.0625C100.619 17.6699 100.924 17.3652 101.293 17.1484C101.668 16.9258 102.113 16.8145 102.629 16.8145C102.746 16.8145 102.881 16.8291 103.033 16.8584C103.186 16.8818 103.291 16.9082 103.35 16.9375ZM107.023 26.5H105.397V16.1641C105.397 15.4434 105.538 14.834 105.819 14.3359C106.101 13.8379 106.502 13.46 107.023 13.2021C107.545 12.9443 108.163 12.8154 108.878 12.8154C109.3 12.8154 109.713 12.8682 110.117 12.9736C110.521 13.0732 110.938 13.1992 111.365 13.3516L111.093 14.7227C110.823 14.6172 110.51 14.5176 110.152 14.4238C109.801 14.3242 109.414 14.2744 108.992 14.2744C108.295 14.2744 107.791 14.4326 107.48 14.749C107.176 15.0596 107.023 15.5312 107.023 16.1641V26.5ZM108.966 16.9902V18.2383H103.895V16.9902H108.966ZM112.165 16.9902V26.5H110.539V16.9902H112.165ZM116.604 13V26.5H114.969V13H116.604Z" fill="#003B6D"/>
</g>
<defs>
<filter id="filter0_d_252_694" x="0" y="0.5" width="145" height="44" filterUnits="userSpaceOnUse" color-interpolation-filters="sRGB">
<feFlood flood-opacity="0" result="BackgroundImageFix"/>
<feColorMatrix in="SourceAlpha" type="matrix" values="0 0 0 0 0 0 0 0 0 0 0 0 0 0 0 0 0 0 127 0" result="hardAlpha"/>
<feOffset dy="2"/>
<feGaussianBlur stdDeviation="1"/>
<feComposite in2="hardAlpha" operator="out"/>
<feColorMatrix type="matrix" values="0 0 0 0 0.666667 0 0 0 0 0.666667 0 0 0 0 0.666667 0 0 0 1 0"/>
<feBlend mode="normal" in2="BackgroundImageFix" result="effect1_dropShadow_252_694"/>
<feBlend mode="normal" in="SourceGraphic" in2="effect1_dropShadow_252_694" result="shape"/>
</filter>
</defs>
</svg>
