<svg width="302" height="200" viewBox="0 0 302 200" fill="none" xmlns="http://www.w3.org/2000/svg">
<g clip-path="url(#clip0_839_1157)">
<path d="M290.195 133.844C288.015 136.227 285.31 138 282.375 139.377H282.372C282.096 139.508 281.82 139.635 281.54 139.756H281.536L281.533 139.759L281.529 139.756H281.526L281.526 139.757L281.525 139.758L281.524 139.759L281.522 139.759H281.519L281.515 139.756C281.512 139.759 281.512 139.759 281.508 139.756L281.505 139.759L281.501 139.756H281.498C281.494 139.759 281.494 139.759 281.491 139.756H281.487C279.523 140.605 277.505 141.327 275.448 141.915C263.348 145.348 250.631 146.012 238.239 143.858C238.002 143.816 237.768 143.773 237.531 143.731V115.019C237.765 114.92 238.002 114.821 238.239 114.726C239.786 114.085 241.352 113.496 242.937 112.959C245.216 112.181 247.528 111.513 249.871 110.956C257.517 109.105 265.406 108.467 273.249 109.065C274.676 109.172 276.099 109.325 277.519 109.526C280.489 109.94 283.604 110.662 286.344 111.915H286.347C286.747 112.103 287.14 112.297 287.53 112.506C289.965 113.827 292.018 115.643 293.271 118.131C293.722 119.025 294.046 119.977 294.234 120.959V120.966C294.305 121.306 294.355 121.65 294.394 121.989C294.84 126.181 293.102 130.665 290.195 133.844Z" fill="#D2D2D2"/>
<path d="M294.394 121.989C294.359 121.998 294.323 122.003 294.287 122.004C288.224 122.269 282.168 122.663 276.12 123.186H276.11C276.085 123.189 276.064 123.189 276.039 123.193C269.83 123.731 263.634 124.405 257.451 125.214C257.189 125.25 256.93 125.285 256.672 125.317C252.396 125.887 248.128 126.519 243.868 127.214C241.988 127.522 240.112 127.843 238.239 128.177C238.002 128.22 237.768 128.258 237.531 128.304V127.232C237.768 127.186 238.006 127.147 238.239 127.104C244.477 126 250.735 125.036 257.015 124.212C258.594 124 260.175 123.799 261.759 123.611C266.332 123.058 270.913 122.582 275.501 122.181C275.837 122.152 276.17 122.124 276.506 122.096C282.379 121.596 288.26 121.218 294.149 120.959C294.178 120.958 294.206 120.96 294.234 120.966C294.801 121.016 294.921 121.866 294.394 121.989Z" fill="white"/>
<path d="M281.801 138.713C274.246 138.768 266.804 135.565 261.461 130.263C259.953 128.762 258.625 127.09 257.502 125.283C257.141 124.705 256.299 125.342 256.656 125.915C260.806 132.57 267.718 137.311 275.339 139.054C277.503 139.544 279.717 139.781 281.936 139.76C282.614 139.755 282.473 138.708 281.801 138.713Z" fill="white"/>
<path d="M249.871 110.956C249.839 111.055 249.781 111.145 249.704 111.215C249.626 111.285 249.531 111.334 249.429 111.356C247.698 111.809 246.025 112.463 244.445 113.303C242.137 114.522 240.042 116.105 238.239 117.993C238.144 118.089 238.052 118.184 237.963 118.283C237.814 118.439 237.673 118.598 237.531 118.761V117.218C237.758 116.977 237.995 116.74 238.239 116.513C239.662 115.151 241.239 113.958 242.937 112.959C245.216 112.181 247.528 111.513 249.871 110.956Z" fill="white"/>
<path d="M286.97 111.636C282.164 113.701 278.144 117.246 275.493 121.755C275.439 121.884 275.438 122.029 275.491 122.158C275.543 122.288 275.645 122.391 275.773 122.446C275.902 122.497 276.046 122.497 276.175 122.445C276.304 122.392 276.408 122.292 276.465 122.166C278.995 117.907 282.813 114.563 287.367 112.614C287.992 112.347 287.596 111.368 286.97 111.636Z" fill="white"/>
<path d="M301.456 81.5717C300.634 84.6939 299.059 87.5222 297.102 90.1027L297.098 90.1062C296.917 90.347 296.73 90.5912 296.535 90.8248V90.8284C295.176 92.5027 293.709 94.086 292.142 95.5682C286.511 100.934 280.151 105.478 273.249 109.066C262.392 114.736 250.257 118.089 238.239 118.28C238.147 118.283 238.055 118.283 237.963 118.283C237.818 118.287 237.673 118.287 237.531 118.287V102.198C237.761 101.759 237.998 101.32 238.239 100.885C241.363 95.2654 245.171 90.0551 249.578 85.3735C249.684 85.2567 249.794 85.1399 249.903 85.0266C251.56 83.2779 253.297 81.613 255.114 80.0319C262.105 73.8854 270.184 69.1011 278.935 65.9257C281.756 64.9133 284.85 64.1027 287.859 63.9434C288.301 63.9186 288.74 63.908 289.183 63.9116C291.955 63.9505 294.613 64.6054 296.882 66.2266C297.695 66.8102 298.424 67.5021 299.049 68.2832C299.268 68.5558 299.47 68.8354 299.665 69.1222V69.1257C302.008 72.6301 302.553 77.4054 301.456 81.5717Z" fill="#D2D2D2"/>
<path d="M299.665 69.1222V69.1257C299.638 69.1486 299.61 69.1687 299.58 69.1859C294.34 72.2337 289.167 75.3924 284.06 78.662C284.053 78.6655 284.05 78.6691 284.043 78.6726C284.022 78.6869 284.001 78.6999 283.979 78.7115C278.729 82.0744 273.554 85.5505 268.453 89.1399C268.24 89.2885 268.024 89.4407 267.809 89.593C264.286 92.0815 260.801 94.623 257.352 97.2177C250.838 102.124 244.467 107.212 238.239 112.481C238.002 112.68 237.768 112.881 237.531 113.083V111.706C237.765 111.504 238.002 111.303 238.239 111.104C240.625 109.09 243.032 107.104 245.461 105.147C246.187 104.563 246.916 103.979 247.645 103.402C254.123 98.2443 260.746 93.2791 267.515 88.5062H267.518C268.849 87.5682 270.183 86.6384 271.518 85.7168C275.313 83.1045 279.151 80.5546 283.03 78.0673C283.31 77.8868 283.593 77.7062 283.876 77.5257C288.843 74.354 293.874 71.2862 298.971 68.3222C298.996 68.307 299.022 68.294 299.049 68.2832C299.58 68.0708 300.079 68.7717 299.665 69.1222Z" fill="white"/>
<path d="M296.283 89.7817C289.619 93.3398 281.541 93.9602 274.346 91.7472C272.313 91.1177 270.36 90.2547 268.526 89.1757C267.939 88.8315 267.489 89.7869 268.071 90.1282C274.837 94.094 283.161 95.0814 290.72 93.085C292.864 92.514 294.935 91.6954 296.89 90.6457C297.487 90.3266 296.877 89.4648 296.283 89.7817Z" fill="white"/>
<path d="M246.424 102.733C246.094 100.88 245.981 98.9952 246.087 97.116C246.325 92.8302 247.638 88.6731 249.903 85.0272C251.562 83.2791 253.299 81.614 255.115 80.0317C255.132 80.1352 255.122 80.2414 255.086 80.3398C255.049 80.4381 254.988 80.5253 254.908 80.5927C253.586 81.7988 252.409 83.1538 251.399 84.6308C247.792 89.8946 246.384 96.359 247.476 102.646C247.493 102.717 247.493 102.792 247.473 102.863C247.454 102.933 247.416 102.998 247.365 103.05C247.289 103.116 247.197 103.161 247.099 103.181C247 103.2 246.899 103.194 246.803 103.162C246.708 103.13 246.623 103.073 246.557 102.998C246.49 102.923 246.444 102.832 246.424 102.733Z" fill="white"/>
<path d="M288.283 63.4026C284.987 67.4636 283.073 72.4706 282.82 77.6946C282.832 77.8338 282.899 77.9624 283.005 78.0527C283.112 78.143 283.25 78.1875 283.389 78.1767C283.528 78.1619 283.655 78.0945 283.744 77.9884C283.834 77.8823 283.88 77.7457 283.872 77.607C284.134 72.6607 285.961 67.9256 289.089 64.0845C289.518 63.5578 288.713 62.8749 288.283 63.4026Z" fill="white"/>
<path d="M251.624 75.0336V75.0371C251.599 75.3416 251.571 75.6424 251.539 75.9433V75.9504C251.293 78.0921 250.908 80.2157 250.388 82.3079C250.141 83.3345 249.871 84.3539 249.578 85.3734C249.542 85.5044 249.503 85.6353 249.464 85.7628V85.7663C248.6 88.7313 247.567 91.6446 246.371 94.492C244.169 99.7344 241.445 104.741 238.239 109.437C238.009 109.78 237.772 110.124 237.531 110.464V55.03C237.768 55.0159 238.002 55.0159 238.239 55.023C238.352 55.023 238.466 55.0265 238.579 55.0336C239.578 55.0861 240.565 55.2779 241.51 55.6035C241.843 55.7132 242.165 55.8371 242.484 55.9752C246.346 57.6672 249.38 61.3982 250.696 65.5009C251.684 68.5734 251.882 71.8053 251.624 75.0336Z" fill="#D2D2D2"/>
<path d="M242.484 55.9752C242.475 56.0099 242.462 56.0432 242.445 56.0743C241.011 58.8602 239.609 61.6602 238.239 64.4743C238.002 64.9593 237.765 65.4477 237.531 65.9327V63.5256C237.765 63.0442 238.001 62.5628 238.239 62.0814C239.298 59.9362 240.374 57.8005 241.468 55.6743C241.48 55.6495 241.494 55.6258 241.51 55.6035C241.836 55.1362 242.643 55.4548 242.484 55.9752Z" fill="white"/>
<path d="M251.737 75.6036C251.673 75.7169 251.61 75.8301 251.539 75.9434C250.499 77.7548 249.262 79.4454 247.85 80.9841C245.138 83.9264 241.872 86.3045 238.239 87.9823C238.006 88.0956 237.768 88.2018 237.531 88.3009V87.1505C237.768 87.0443 238.006 86.9346 238.239 86.8213C243.498 84.3131 247.866 80.26 250.76 75.2036C250.802 75.1314 250.859 75.069 250.927 75.0207C250.995 74.9723 251.072 74.9391 251.154 74.9234C251.236 74.9076 251.32 74.9096 251.401 74.9292C251.482 74.9489 251.558 74.9857 251.624 75.0372C251.669 75.0669 251.707 75.1052 251.737 75.1497C251.767 75.1943 251.787 75.2443 251.798 75.2969C251.808 75.3495 251.808 75.4037 251.798 75.4563C251.788 75.5089 251.767 75.559 251.737 75.6036Z" fill="white"/>
<path d="M238.239 11.6814V38.5841H237.531V38.2973H0.707992V38.5841H0V11.6814C0.00304025 8.58424 1.23478 5.61479 3.42489 3.42476C5.61501 1.23473 8.58457 0.00304013 11.6819 0H226.557C229.655 0.00304013 232.624 1.23473 234.814 3.42476C237.004 5.61479 238.236 8.58424 238.239 11.6814Z" fill="#003B6D"/>
<path d="M226.557 0H11.6819C8.58457 0.00304013 5.61501 1.23473 3.42489 3.42476C1.23478 5.6148 0.00304025 8.58424 0 11.6814V165.31C0.00304025 168.407 1.23478 171.376 3.42489 173.566C5.61501 175.756 8.58457 176.988 11.6819 176.991H226.557C229.655 176.988 232.624 175.756 234.814 173.566C237.004 171.376 238.236 168.407 238.239 165.31V11.6814C238.236 8.58424 237.004 5.6148 234.814 3.42476C232.624 1.23473 229.655 0.00304013 226.557 0ZM237.531 165.31C237.527 168.219 236.37 171.008 234.313 173.065C232.256 175.122 229.467 176.279 226.557 176.283H11.6819C8.77255 176.279 5.98346 175.122 3.92626 173.065C1.86906 171.008 0.711704 168.219 0.707992 165.31V11.6814C0.711704 8.77221 1.86906 5.98323 3.92626 3.92612C5.98346 1.869 8.77255 0.711677 11.6819 0.707965H226.557C229.467 0.711677 232.256 1.869 234.313 3.92612C236.37 5.98323 237.527 8.77221 237.531 11.6814V165.31Z" fill="#3F3D56"/>
<path d="M48.1434 26.3717C52.0535 26.3717 55.2233 23.202 55.2233 19.292C55.2233 15.3821 52.0535 12.2124 48.1434 12.2124C44.2333 12.2124 41.0635 15.3821 41.0635 19.292C41.0635 23.202 44.2333 26.3717 48.1434 26.3717Z" fill="white"/>
<path d="M190.096 26.3717C194.006 26.3717 197.176 23.202 197.176 19.292C197.176 15.3821 194.006 12.2124 190.096 12.2124C186.186 12.2124 183.016 15.3821 183.016 19.292C183.016 23.202 186.186 26.3717 190.096 26.3717Z" fill="white"/>
<path d="M68.599 98.2308H26.4819C24.6976 98.2287 22.987 97.5191 21.7253 96.2574C20.4637 94.9958 19.754 93.2853 19.752 91.501V71.5957C19.754 69.8115 20.4637 68.1009 21.7253 66.8393C22.987 65.5777 24.6976 64.868 26.4819 64.866H68.599C70.3833 64.868 72.0939 65.5777 73.3556 66.8393C74.6173 68.1009 75.327 69.8115 75.329 71.5957V91.501C75.327 93.2853 74.6173 94.9958 73.3556 96.2574C72.0939 97.5191 70.3833 98.2287 68.599 98.2308Z" fill="#003B6D"/>
<path d="M140.247 98.2308H98.1301C96.3458 98.2287 94.6352 97.5191 93.3735 96.2574C92.1119 94.9958 91.4022 93.2852 91.4001 91.501V71.5957C91.4022 69.8115 92.1119 68.1009 93.3735 66.8393C94.6352 65.5777 96.3458 64.868 98.1301 64.866H140.247C142.031 64.868 143.742 65.5777 145.004 66.8393C146.265 68.1009 146.975 69.8115 146.977 71.5957V91.501C146.975 93.2852 146.265 94.9958 145.004 96.2574C143.742 97.5191 142.031 98.2287 140.247 98.2308Z" fill="#003B6D"/>
<path d="M140.247 149.661H98.1302C96.2918 149.659 94.5294 148.928 93.2295 147.628C91.9296 146.328 91.1984 144.566 91.1963 142.728V122.822C91.1984 120.984 91.9296 119.221 93.2295 117.922C94.5294 116.622 96.2918 115.89 98.1302 115.888H140.247C142.086 115.89 143.848 116.622 145.148 117.922C146.448 119.221 147.179 120.984 147.181 122.822V142.728C147.179 144.566 146.448 146.328 145.148 147.628C143.848 148.928 142.086 149.659 140.247 149.661Z" fill="#D2D2D2"/>
<path d="M68.4609 149.661H26.3438C24.5055 149.659 22.743 148.928 21.4431 147.628C20.1432 146.328 19.412 144.566 19.4099 142.728V122.822C19.412 120.984 20.1432 119.221 21.4431 117.922C22.743 116.622 24.5055 115.89 26.3438 115.888H68.4609C70.2993 115.89 72.0617 116.622 73.3616 117.922C74.6615 119.221 75.3927 120.984 75.3948 122.822V142.728C75.3927 144.566 74.6615 146.328 73.3616 147.628C72.0617 148.928 70.2993 149.659 68.4609 149.661Z" fill="#D2D2D2"/>
<path d="M211.895 149.661H169.778C167.94 149.659 166.178 148.928 164.878 147.628C163.578 146.328 162.847 144.566 162.844 142.728V122.822C162.847 120.984 163.578 119.221 164.878 117.922C166.178 116.622 167.94 115.89 169.778 115.888H211.895C213.734 115.89 215.496 116.622 216.796 117.922C218.096 119.221 218.827 120.984 218.829 122.822V142.728C218.827 144.566 218.096 146.328 216.796 147.628C215.496 148.928 213.734 149.659 211.895 149.661Z" fill="#D2D2D2"/>
<path d="M211.895 98.2709H169.778C167.94 98.2688 166.178 97.5377 164.878 96.2378C163.578 94.9379 162.847 93.1755 162.844 91.3373V71.4317C162.847 69.5934 163.578 67.831 164.878 66.5312C166.178 65.2313 167.94 64.5001 169.778 64.498H211.895C213.734 64.5001 215.496 65.2313 216.796 66.5312C218.096 67.831 218.827 69.5934 218.829 71.4317V91.3372C218.827 93.1755 218.096 94.9379 216.796 96.2378C215.496 97.5377 213.734 98.2688 211.895 98.2709Z" fill="#D2D2D2"/>
<path d="M47.5404 92.9684C53.8478 92.9684 58.961 87.8555 58.961 81.5483C58.961 75.2411 53.8478 70.1282 47.5404 70.1282C41.233 70.1282 36.1199 75.2411 36.1199 81.5483C36.1199 87.8555 41.233 92.9684 47.5404 92.9684Z" fill="white"/>
<path d="M46.4084 85.9049C46.1515 85.9054 45.9014 85.8223 45.6958 85.6682L45.683 85.6586L42.9991 83.6038C42.8747 83.5086 42.7702 83.3898 42.6916 83.2543C42.6131 83.1187 42.562 82.969 42.5414 82.8136C42.5208 82.6583 42.5309 82.5005 42.5713 82.3491C42.6118 82.1977 42.6816 82.0558 42.7769 81.9314C42.8722 81.807 42.9911 81.7027 43.1267 81.6243C43.2624 81.5459 43.4122 81.495 43.5675 81.4745C43.7229 81.454 43.8807 81.4643 44.0321 81.5049C44.1834 81.5454 44.3253 81.6154 44.4496 81.7108L46.188 83.0438L50.2962 77.6863C50.3915 77.5621 50.5103 77.4578 50.6459 77.3794C50.7814 77.3011 50.9311 77.2502 51.0864 77.2297C51.2416 77.2092 51.3994 77.2195 51.5506 77.26C51.7019 77.3005 51.8437 77.3704 51.968 77.4656L51.9424 77.5003L51.9686 77.4662C52.2193 77.6588 52.3833 77.943 52.4247 78.2564C52.466 78.5698 52.3814 78.8868 52.1893 79.1379L47.3571 85.4396C47.2453 85.5848 47.1016 85.7023 46.9371 85.783C46.7726 85.8637 46.5917 85.9054 46.4084 85.9049Z" fill="#003B6D"/>
<path d="M119.392 92.8046C125.7 92.8046 130.813 87.6916 130.813 81.3845C130.813 75.0773 125.7 69.9644 119.392 69.9644C113.085 69.9644 107.972 75.0773 107.972 81.3845C107.972 87.6916 113.085 92.8046 119.392 92.8046Z" fill="white"/>
<path d="M118.261 85.7408C118.004 85.7413 117.753 85.6582 117.548 85.5041L117.535 85.4945L114.851 83.4397C114.6 83.2474 114.436 82.9632 114.394 82.6497C114.353 82.3362 114.438 82.0191 114.63 81.7681C114.822 81.517 115.106 81.3527 115.42 81.3112C115.733 81.2697 116.051 81.3544 116.302 81.5468L118.04 82.8797L122.148 77.5222C122.244 77.398 122.362 77.2937 122.498 77.2154C122.634 77.137 122.783 77.0862 122.938 77.0657C123.094 77.0452 123.251 77.0555 123.403 77.0959C123.554 77.1364 123.696 77.2063 123.82 77.3016L123.795 77.3363L123.821 77.3021C124.071 77.4947 124.235 77.7789 124.277 78.0923C124.318 78.4057 124.234 78.7227 124.041 78.9738L119.209 85.2755C119.097 85.4207 118.954 85.5382 118.789 85.6189C118.625 85.6996 118.444 85.7413 118.261 85.7408Z" fill="#003B6D"/>
<path d="M196.578 135.274C196.953 134.864 197.234 134.376 197.4 133.846C197.567 133.316 197.615 132.755 197.541 132.204C197.468 131.653 197.274 131.125 196.974 130.657C196.674 130.189 196.275 129.792 195.806 129.495L189.43 95.4512L181.676 98.3264L190.381 130.886C189.934 131.708 189.804 132.666 190.016 133.578C190.228 134.489 190.767 135.292 191.53 135.833C192.294 136.373 193.23 136.615 194.16 136.512C195.091 136.41 195.951 135.969 196.578 135.274Z" fill="#A0616A"/>
<path d="M134.705 83.3277C134.724 83.5391 134.727 83.7516 134.713 83.9634L149.789 95.5668L154.065 93.8112L157.558 99.9171L150.291 103.761C149.704 104.071 149.032 104.183 148.376 104.079C147.72 103.975 147.116 103.661 146.653 103.184L131.583 87.6485C130.786 87.8284 129.952 87.7612 129.193 87.4558C128.435 87.1504 127.787 86.6213 127.337 85.9389C126.886 85.2564 126.654 84.453 126.671 83.6355C126.689 82.818 126.954 82.025 127.433 81.3622C127.912 80.6994 128.581 80.1981 129.352 79.9249C130.123 79.6518 130.959 79.6197 131.748 79.8331C132.537 80.0465 133.243 80.4951 133.771 81.1193C134.3 81.7436 134.625 82.5138 134.705 83.3277Z" fill="#A0616A"/>
<path d="M169.928 195.699H165.588L163.523 182.5L169.929 182.5L169.928 195.699Z" fill="#A0616A"/>
<path d="M171.035 199.906L157.041 199.905V199.728C157.041 199.013 157.182 198.305 157.456 197.644C157.73 196.983 158.131 196.383 158.637 195.877C159.142 195.371 159.743 194.97 160.404 194.696C161.064 194.423 161.773 194.282 162.488 194.282L171.035 194.282L171.035 199.906Z" fill="#2F2E41"/>
<path d="M186.212 195.699H181.872L179.807 182.5L186.213 182.5L186.212 195.699Z" fill="#A0616A"/>
<path d="M187.319 199.906L173.325 199.905V199.728C173.325 199.013 173.466 198.305 173.74 197.644C174.013 196.983 174.414 196.383 174.92 195.877C175.426 195.371 176.026 194.97 176.687 194.696C177.348 194.423 178.056 194.282 178.772 194.282L187.319 194.282L187.319 199.906Z" fill="#2F2E41"/>
<path d="M164.687 193.09C164.291 193.09 163.909 192.943 163.616 192.676C163.323 192.409 163.14 192.043 163.103 191.648L159.321 140.785L159.5 140.77L185.526 138.631L185.533 138.816L187.602 191.507C187.61 191.721 187.575 191.934 187.498 192.134C187.422 192.335 187.306 192.517 187.157 192.671C187.009 192.826 186.83 192.948 186.633 193.032C186.436 193.116 186.224 193.159 186.01 193.159H180.907C180.526 193.161 180.157 193.025 179.868 192.777C179.579 192.529 179.389 192.185 179.332 191.809L172.403 149.244C172.396 149.2 172.373 149.16 172.338 149.132C172.303 149.105 172.259 149.091 172.215 149.094C172.17 149.098 172.129 149.117 172.098 149.15C172.068 149.182 172.051 149.225 172.051 149.269L171.736 191.296C171.733 191.701 171.575 192.091 171.295 192.384C171.014 192.678 170.632 192.853 170.227 192.875L164.773 193.088C164.744 193.089 164.715 193.09 164.687 193.09Z" fill="#2F2E41"/>
<path d="M169.129 76.5045C173.931 76.5045 177.824 72.612 177.824 67.8104C177.824 63.0087 173.931 59.1162 169.129 59.1162C164.327 59.1162 160.435 63.0087 160.435 67.8104C160.435 72.612 164.327 76.5045 169.129 76.5045Z" fill="#A0616A"/>
<path d="M170.812 144.029C167.012 144.018 163.23 143.501 159.566 142.492C159.214 142.389 158.907 142.168 158.699 141.866C158.49 141.564 158.392 141.199 158.421 140.833C159.591 123.243 159.867 109.592 157.405 100.147C156.356 96.1212 156.833 91.8816 158.712 88.515C161.54 83.4484 166.739 80.3647 172.284 80.4712C172.549 80.4762 172.817 80.4856 173.087 80.4995C181.503 80.9328 188.06 88.5457 187.705 97.4701L186.012 140.008C186.006 140.318 185.908 140.62 185.731 140.874C185.553 141.129 185.305 141.326 185.016 141.439C180.475 143.147 175.664 144.025 170.812 144.029Z" fill="#3F3D56"/>
<path d="M158.836 103.413L152.324 95.4324C152.138 95.2053 152.004 94.941 151.93 94.6574C151.856 94.3738 151.844 94.0776 151.895 93.789C151.946 93.5004 152.059 93.2261 152.225 92.9848C152.391 92.7436 152.608 92.5411 152.86 92.391L161.682 87.1344C162.849 86.1927 164.342 85.7523 165.833 85.9097C167.325 86.0672 168.693 86.8096 169.637 87.9742C170.582 89.1388 171.027 90.6306 170.873 92.1223C170.719 93.614 169.981 94.984 168.818 95.9318L161.923 103.497C161.726 103.714 161.484 103.885 161.214 104C160.945 104.115 160.653 104.17 160.361 104.162C160.068 104.154 159.78 104.083 159.517 103.954C159.254 103.824 159.022 103.64 158.836 103.413Z" fill="#3F3D56"/>
<path d="M179.324 102.411C179.056 102.292 178.818 102.116 178.624 101.895C178.431 101.675 178.288 101.416 178.204 101.135L175.272 91.3278C174.635 89.9697 174.564 88.4147 175.072 87.0038C175.581 85.5929 176.628 84.4413 177.984 83.8015C179.341 83.1617 180.896 83.086 182.308 83.591C183.72 84.096 184.875 85.1405 185.518 86.4953L191.187 95.0576C191.349 95.302 191.456 95.5784 191.502 95.8679C191.547 96.1574 191.53 96.4534 191.45 96.7355C191.371 97.0176 191.232 97.2794 191.042 97.5028C190.852 97.7263 190.617 97.9063 190.351 98.0306L181.022 102.397C180.757 102.522 180.468 102.587 180.174 102.59C179.881 102.592 179.591 102.531 179.324 102.411Z" fill="#3F3D56"/>
<path d="M173.426 74.9442L166.981 73.4692C166.316 73.317 165.517 73.0267 165.425 72.351C165.301 71.443 166.608 70.8105 166.488 69.902C166.371 69.0221 165.18 68.9087 164.332 68.6489C163.541 68.3716 162.889 67.7976 162.515 67.0484C162.14 66.2992 162.071 65.4335 162.324 64.6347C161.405 65.9288 159.307 66.0397 158.116 64.9912C156.925 63.9427 156.696 62.0403 157.411 60.6238C157.798 59.9281 158.343 59.3333 159.003 58.888C159.662 58.4426 160.418 58.1592 161.208 58.0608C162.796 57.8808 164.401 58.1801 165.818 58.9202C165.912 57.9173 167.165 57.5107 168.172 57.5017C170.265 57.5261 172.298 58.2022 173.988 59.436C175.678 60.6698 176.942 62.3998 177.603 64.3854C178.84 68.3684 178.013 72.7345 174.554 75.065L173.426 74.9442Z" fill="#2F2E41"/>
<path d="M238.341 200H103.468C103.375 200 103.285 199.963 103.218 199.896C103.152 199.83 103.115 199.74 103.115 199.646C103.115 199.552 103.152 199.462 103.218 199.396C103.285 199.329 103.375 199.292 103.468 199.292H238.341C238.435 199.292 238.525 199.329 238.591 199.396C238.658 199.462 238.695 199.552 238.695 199.646C238.695 199.74 238.658 199.83 238.591 199.896C238.525 199.963 238.435 200 238.341 200Z" fill="#3F3D56"/>
</g>
<defs>
<clipPath id="clip0_839_1157">
<rect width="302" height="200" fill="white"/>
</clipPath>
</defs>
</svg>
