<svg width="356" height="230" viewBox="0 0 356 230" fill="none" xmlns="http://www.w3.org/2000/svg">
<path d="M312.274 135.555C328.139 135.555 341 122.709 341 106.861C341 91.0143 328.139 78.1677 312.274 78.1677C296.409 78.1677 283.547 91.0143 283.547 106.861C283.547 122.709 296.409 135.555 312.274 135.555Z" fill="url(#paint0_linear_647_1566)"/>
<path d="M304.512 148.762L311.579 153.136V123.571L303.658 118.668C303.003 118.263 302.525 117.627 302.318 116.886C303.074 116.741 303.858 116.886 304.512 117.291L311.579 121.665V110.201C311.579 107.983 311.851 105.773 312.39 103.622C312.928 105.773 313.2 107.983 313.2 110.201V128.913L323.625 122.46C324.458 121.945 325.421 121.68 326.4 121.696C325.978 122.579 325.312 123.322 324.479 123.837L313.2 130.818V200.737H311.579V155.041L303.658 150.139C303.003 149.733 302.525 149.097 302.318 148.356C303.074 148.212 303.858 148.357 304.512 148.762Z" fill="#AAAAAA"/>
<path d="M269.726 137.991C285.591 137.991 298.453 125.145 298.453 109.298C298.453 93.4505 285.591 80.6039 269.726 80.6039C253.861 80.6039 241 93.4505 241 109.298C241 125.145 253.861 137.991 269.726 137.991Z" fill="url(#paint1_linear_647_1566)"/>
<path d="M277.488 151.198L270.421 155.572V126.007L278.342 121.105C278.997 120.699 279.475 120.063 279.682 119.322C278.926 119.178 278.142 119.322 277.488 119.728L270.421 124.101V112.637C270.421 110.419 270.149 108.21 269.61 106.058C269.072 108.21 268.8 110.419 268.8 112.637V131.349L258.375 124.897C257.543 124.381 256.579 124.116 255.6 124.132C256.022 125.015 256.688 125.758 257.521 126.273L268.8 133.255V200.892H270.421V157.478L278.342 152.575C278.997 152.17 279.475 151.534 279.682 150.792C278.926 150.648 278.142 150.793 277.488 151.198Z" fill="#AAAAAA"/>
<path d="M290.593 98.8067C317.909 98.8067 340.053 76.6881 340.053 49.4034C340.053 22.1186 317.909 0 290.593 0C263.278 0 241.134 22.1186 241.134 49.4034C241.134 76.6881 263.278 98.8067 290.593 98.8067Z" fill="url(#paint2_linear_647_1566)"/>
<path d="M303.956 121.545L291.79 129.076V78.1726L305.427 69.7318C306.555 69.0339 307.378 67.9385 307.735 66.6625C306.433 66.414 305.084 66.6633 303.956 67.3611L291.79 74.8916V55.1528C291.79 51.3343 291.321 47.5301 290.394 43.8256C289.467 47.5301 288.998 51.3343 288.998 55.1528V87.3703L271.049 76.2606C269.616 75.3735 267.958 74.9165 266.272 74.9441C266.998 76.4643 268.145 77.7441 269.579 78.6312L288.998 90.6512V201H291.79V132.357L305.427 123.916C306.555 123.218 307.378 122.123 307.735 120.847C306.433 120.598 305.084 120.848 303.956 121.545Z" fill="#AAAAAA"/>
<line y1="200" x2="356" y2="200" stroke="#EBEBEB" stroke-width="2"/>
<path d="M111 164C99.9723 164 91 172.972 91 184C91 195.028 99.9718 204 111 204C122.028 204 131 195.028 131 184C131 172.972 122.028 164 111 164ZM111 196C104.384 196 99.0001 190.616 99.0001 184C99.0001 177.384 104.384 172 111 172C117.616 172 123 177.384 123 184C123 190.616 117.616 196 111 196Z" fill="#D2D2D2"/>
<path d="M218 164C206.972 164 198 172.972 198 184C198 195.028 206.972 204 218 204C229.028 204 238 195.028 238 184C238 172.972 229.028 164 218 164ZM218 196C211.384 196 206 190.616 206 184C206 177.384 211.384 172 218 172C224.616 172 230 177.384 230 184C230 190.616 224.616 196 218 196Z" fill="#D2D2D2"/>
<path d="M263.023 165.31L260.667 162.954V161V157.667V151V147.667V104.333C260.667 102.493 259.177 101 257.334 101H107.334C106.247 101 105.227 101.53 104.604 102.423L81.5301 135.384C77.6734 138.584 74.0102 142.373 71.3469 147.667L68.8301 154.334C68.1469 156.887 67.6336 159.68 67.4102 162.873L64.9766 165.31C64.35 165.934 64 166.784 64 167.667V174.334C64 175.217 64.35 176.067 64.9766 176.69L67.3332 179.047V184.334C67.3332 186.173 68.823 187.667 70.6664 187.667H84C85.8434 187.667 87.3332 186.173 87.3332 184.334C87.3332 171.467 97.8031 161 110.666 161C123.53 161 134 171.467 134 184.334C134 186.173 135.489 187.667 137.333 187.667H190.666C192.509 187.667 193.999 186.173 193.999 184.334C193.999 171.467 204.469 161 217.332 161C230.196 161 240.666 171.467 240.666 184.334C240.666 186.173 242.155 187.667 243.999 187.667H257.332C259.175 187.667 260.665 186.173 260.665 184.334V179.047L263.022 176.69C263.648 176.067 263.998 175.217 263.998 174.334V167.667C264 166.783 263.65 165.933 263.023 165.31ZM137.333 131C137.333 132.84 135.843 134.333 134 134.333H97.3332C96.1031 134.333 94.973 133.657 94.3934 132.573C93.8133 131.49 93.8801 130.173 94.5602 129.153L107.893 109.153C108.513 108.223 109.554 107.666 110.667 107.666H134C135.843 107.666 137.333 109.16 137.333 111V131Z" fill="#AAAAAA"/>
<path d="M86.2039 226.322L91.0231 226.321L93.3156 207.733L86.2029 207.733L86.2039 226.322Z" fill="#FFB6B6"/>
<path d="M102.715 226.213C102.865 226.465 102.944 227.281 102.944 227.575C102.944 228.478 102.212 229.21 101.309 229.21H86.3842C85.7679 229.21 85.2684 228.711 85.2684 228.095V227.473C85.2684 227.473 84.5301 225.606 86.0501 223.304C86.0501 223.304 87.9393 225.106 90.7622 222.283L91.5947 220.775L97.6206 225.182L100.961 225.594C101.691 225.683 102.339 225.58 102.715 226.213Z" fill="#2F2E41"/>
<path d="M52.9216 226.322L57.7408 226.321L60.0333 207.733L52.9207 207.733L52.9216 226.322Z" fill="#FFB6B6"/>
<path d="M69.4326 226.213C69.5826 226.465 69.6618 227.281 69.6618 227.575C69.6618 228.478 68.9295 229.21 68.0262 229.21H53.1017C52.4855 229.21 51.9859 228.711 51.9859 228.095V227.473C51.9859 227.473 51.2476 225.606 52.7676 223.304C52.7676 223.304 54.6568 225.106 57.4798 222.283L58.3122 220.775L64.3381 225.182L67.6781 225.594C68.4088 225.683 69.0567 225.58 69.4326 226.213Z" fill="#2F2E41"/>
<path d="M87.6447 138.531L89.4306 140.881C89.4306 140.881 89.5925 141.977 92.3013 150.915L93.7874 218.093H84.7967L72.7815 164.343L60.3098 219.17L52.517 219.63L52.8824 157.312C52.8824 157.312 52.0618 155.144 52.7599 152.602C55.4316 142.876 55.2775 145.44 55.3872 142.111C55.5262 137.889 87.6447 138.531 87.6447 138.531Z" fill="#2F2E41"/>
<path d="M73.4731 82.08C78.683 82.08 82.9065 77.8565 82.9065 72.6466C82.9065 67.4367 78.683 63.2133 73.4731 63.2133C68.2632 63.2133 64.0398 67.4367 64.0398 72.6466C64.0398 77.8565 68.2632 82.08 73.4731 82.08Z" fill="#FEB8B8"/>
<path d="M68.4012 83.8547L63.1814 86.7396C58.8263 87.0549 55.703 88.2136 52.9277 89.6108L55.9883 116.444L55.4314 142.876C55.4314 142.876 72.7882 154.766 89.4315 140.88V104.966L88.6501 90.6836C88.559 89.0183 87.0863 87.7263 85.4329 87.9451C84.4887 88.07 83.4014 88.0458 82.2908 87.6756L78.836 83.6664L68.4012 83.8547Z" fill="#003B6D"/>
<path d="M97.9142 61.7183C98.4406 62.9055 98.6552 64.1131 98.5854 65.1601L104.314 76.153L99.0038 78.7261L93.7641 67.2978C92.9414 66.6465 92.1905 65.6767 91.6641 64.4895C90.4615 61.7773 90.8858 58.9583 92.6117 58.193C94.3377 57.4278 96.7116 59.0061 97.9142 61.7183Z" fill="#FFB6B6"/>
<path d="M82.2908 87.6756L83.8711 88.3984C85.321 86.8398 89.6887 87.085 91.8079 87.287L101.121 88.175L96.7717 74.5699L103.319 71.9353L111.142 86.9907C111.615 89.5448 110.553 92.1399 108.426 93.63L88.4664 104.965L86.1463 89.439L82.2908 87.6756Z" fill="#003B6D"/>
<path d="M34.0251 151.491C34.1245 150.196 34.5082 149.031 35.0659 148.142L35.2339 135.747L41.1296 136L40.3245 148.546C40.7401 149.51 40.9413 150.719 40.8419 152.014C40.6148 154.972 38.9047 157.253 37.0223 157.109C35.1398 156.964 33.798 154.449 34.0251 151.491Z" fill="#FFB6B6"/>
<path d="M57.2969 93.0014L54.5876 88.8862C54.5876 88.8862 50.169 89.7296 47.8212 93.0612C45.4734 96.3929 36.5988 116.825 36.5988 116.825L34.8945 139.891L41.4955 138.531L44.6805 121.039L54.9219 107.044L57.2969 93.0014Z" fill="#003B6D"/>
<path d="M82.9065 73.8978C83.2608 72.0996 77.7931 69.4823 77.8027 69.4854C78.6514 69.7563 77.3165 71.3114 76.4446 71.128C76.4446 71.128 75.1636 71.7797 75.8617 72.3403C73.4553 72.1341 70.2402 69.8472 67.8338 69.641C66.866 69.5564 66.4911 71.8903 65.8829 72.6465C64.9627 73.8047 64.0398 71.5014 64.3803 74.57H64.2429C63.7404 73.3589 63.238 72.1266 63.0741 70.8257C62.9154 69.5246 63.1375 68.1231 63.9678 67.1077C64.2429 66.764 63.1624 65.6323 63.4533 65.3044C64.3788 64.2414 66.1732 63.6595 66.9982 62.5225C68.0903 61.0162 69.3328 62.0794 71.6068 60.8126C72.2017 60.4812 73.2357 60.3619 73.8946 60.534L75.4336 60.9359C75.1336 61.3859 75.5048 61.9794 76.0408 61.9066L78.0462 61.634C78.8025 61.8772 79.5217 62.2369 79.8602 62.9297C80.0665 63.3422 80.1035 63.8234 80.2622 64.2571C80.553 65.0557 81.2405 65.6322 81.7906 66.2774C83.2692 66.708 83.3485 67.8133 83.3485 69.6668C84.7265 70.4398 83.2887 72.1682 82.9065 73.8978Z" fill="#2F2E41"/>
<defs>
<linearGradient id="paint0_linear_647_1566" x1="234.25" y1="-58.0352" x2="371.541" y2="-50.6947" gradientUnits="userSpaceOnUse">
<stop stop-color="#003B6D"/>
<stop offset="1" stop-color="#005297"/>
</linearGradient>
<linearGradient id="paint1_linear_647_1566" x1="234.25" y1="-58.0352" x2="371.541" y2="-50.6947" gradientUnits="userSpaceOnUse">
<stop stop-color="#003B6D"/>
<stop offset="1" stop-color="#005297"/>
</linearGradient>
<linearGradient id="paint2_linear_647_1566" x1="234.25" y1="-58.0352" x2="371.541" y2="-50.6947" gradientUnits="userSpaceOnUse">
<stop stop-color="#003B6D"/>
<stop offset="1" stop-color="#005297"/>
</linearGradient>
</defs>
</svg>
