<svg width="22" height="22" viewBox="0 0 22 22" fill="none" xmlns="http://www.w3.org/2000/svg">
<path d="M4 14.3333C2.14863 15.0392 1 16.0228 1 17.1108C1 19.2588 5.47716 21 11 21C16.5229 21 21 19.2588 21 17.1108C21 16.0228 19.8513 15.0392 18 14.3333M11 7.66667H11.0111M17.6667 7.66667C17.6667 12.1819 12.6667 14.3333 11 17.6667C9.33333 14.3333 4.33333 12.1819 4.33333 7.66667C4.33333 3.98477 7.3181 1 11 1C14.6819 1 17.6667 3.98477 17.6667 7.66667ZM12.1111 7.66667C12.1111 8.28031 11.6137 8.77778 11 8.77778C10.3863 8.77778 9.88889 8.28031 9.88889 7.66667C9.88889 7.05302 10.3863 6.55556 11 6.55556C11.6137 6.55556 12.1111 7.05302 12.1111 7.66667Z" stroke="white" stroke-width="2" stroke-linecap="round" stroke-linejoin="round"/>
</svg>
