<svg width="40" height="41" viewBox="0 0 40 41" fill="none" xmlns="http://www.w3.org/2000/svg">
<path d="M20 26.125L25.625 20.5M25.625 20.5L20 14.875M25.625 20.5H5M14.375 11.5911V11.5004C14.375 9.40017 14.375 8.34929 14.7837 7.54713C15.1432 6.84151 15.7165 6.26824 16.4221 5.90873C17.2242 5.5 18.2752 5.5 20.3754 5.5H29.0004C31.1006 5.5 32.1493 5.5 32.9514 5.90873C33.6569 6.26824 34.2322 6.84151 34.5916 7.54713C35 8.3485 35 9.39811 35 11.4942V29.5068C35 31.6028 35 32.6509 34.5916 33.4523C34.2322 34.1579 33.6569 34.7322 32.9514 35.0916C32.15 35.5 31.1019 35.5 29.0058 35.5H20.3692C18.2731 35.5 17.2235 35.5 16.4221 35.0916C15.7165 34.7322 15.1432 34.1573 14.7837 33.4518C14.375 32.6496 14.375 31.6002 14.375 29.5V29.4062" stroke="url(#paint0_linear_296_800)" stroke-width="2" stroke-linecap="round" stroke-linejoin="round"/>
<defs>
<linearGradient id="paint0_linear_296_800" x1="2.975" y1="-3.16197" x2="43.8083" y2="1.22634" gradientUnits="userSpaceOnUse">
<stop stop-color="#6D0000"/>
<stop offset="1" stop-color="#FF005C"/>
</linearGradient>
</defs>
</svg>
