<svg width="249" height="224" viewBox="0 0 249 224" fill="none" xmlns="http://www.w3.org/2000/svg">
<g clip-path="url(#clip0_11_7)">
<path d="M238.687 58.6734C257.099 86.6517 249.068 130.869 228.697 153.174C208.326 175.478 175.81 175.869 149.562 188C123.314 200.13 103.334 224 81.9837 224C60.6329 224 37.911 200.13 20.2819 163.543C2.84866 126.956 -9.49171 77.6517 9.70441 49.4777C28.9005 21.3037 79.829 14.0646 127.623 16.4124C175.418 18.7602 220.274 30.695 238.687 58.6734Z" fill="#D4D4D4" fill-opacity="0.5"/>
<path fill-rule="evenodd" clip-rule="evenodd" d="M186.876 63.6172C184.431 66.1078 181.962 68.3051 179.725 70.1467C177.569 68.3674 175.194 66.2185 172.847 63.7661C164.955 55.522 159.654 46.2905 159.654 37.5481C159.654 25.5751 169.106 16.3846 180.135 16.3846C191.164 16.3846 200.615 25.5751 200.615 37.5481C200.615 46.0107 195.169 55.1698 186.876 63.6172ZM217 37.5481C217 67.5865 180.135 90.1154 180.135 90.1154C178.292 90.1154 143.269 67.5865 143.269 37.5481C143.269 16.8108 159.774 0 180.135 0C200.495 0 217 16.8108 217 37.5481ZM20.3846 73.7308C20.3846 87.3038 31.3881 98.3077 44.9615 98.3077H176.038C198.661 98.3077 217 116.646 217 139.269C217 161.892 198.661 180.231 176.038 180.231H85.9231V163.846H176.038C189.611 163.846 200.615 152.842 200.615 139.269C200.615 125.696 189.611 114.692 176.038 114.692H44.9615C22.3391 114.692 4 96.3535 4 73.7308C4 51.1083 22.3391 32.7692 44.9615 32.7692H135.077V49.1538H44.9615C31.3881 49.1538 20.3846 60.1573 20.3846 73.7308ZM47.6066 186.502C45.1613 188.992 42.6933 191.19 40.456 193.032C38.2997 191.252 35.9249 189.104 33.5772 186.65C25.6854 178.407 20.3846 169.176 20.3846 160.433C20.3846 148.46 29.8362 139.269 40.8654 139.269C51.8945 139.269 61.3462 148.46 61.3462 160.433C61.3462 168.896 55.9005 178.055 47.6066 186.502ZM77.7308 160.433C77.7308 190.471 40.8654 213 40.8654 213C39.0221 213 4 190.471 4 160.433C4 139.695 20.5052 122.885 40.8654 122.885C61.2256 122.885 77.7308 139.695 77.7308 160.433ZM53.1538 159.75C53.1538 166.537 47.6521 172.038 40.8654 172.038C34.0787 172.038 28.5769 166.537 28.5769 159.75C28.5769 152.963 34.0787 147.462 40.8654 147.462C47.6521 147.462 53.1538 152.963 53.1538 159.75ZM180.135 49.1538C186.921 49.1538 192.423 43.6521 192.423 36.8654C192.423 30.0787 186.921 24.5769 180.135 24.5769C173.348 24.5769 167.846 30.0787 167.846 36.8654C167.846 43.6521 173.348 49.1538 180.135 49.1538Z" fill="#003B6D"/>
</g>
<defs>
<clipPath id="clip0_11_7">
<rect width="249" height="224" fill="white"/>
</clipPath>
</defs>
</svg>
