<svg width="232" height="231" viewBox="0 0 232 231" fill="none" xmlns="http://www.w3.org/2000/svg">
<path d="M116 226C141.565 226 166.339 217.136 186.1 200.918C205.862 184.7 219.389 162.131 224.377 137.057C229.364 111.984 225.503 85.9568 213.452 63.4107C201.401 40.8646 181.905 23.1945 158.287 13.4113C134.668 3.62811 108.388 2.33703 83.9236 9.75809C59.4596 17.1791 38.3256 32.8532 24.1226 54.1095C9.9196 75.3658 3.52631 100.889 6.03208 126.331C8.53786 151.773 19.7877 175.558 37.8647 193.635" stroke="#D2D2D2" stroke-width="10" stroke-linecap="round"/>
<path d="M178.5 69L102.402 160.318C101.746 161.104 101.419 161.498 100.978 161.518C100.538 161.538 100.175 161.175 99.4514 160.451L54.5 115.5" stroke="url(#paint0_linear_198_2736)" stroke-width="10" stroke-linecap="round"/>
<defs>
<linearGradient id="paint0_linear_198_2736" x1="186.87" y1="42.1479" x2="19.578" y2="66.1195" gradientUnits="userSpaceOnUse">
<stop stop-color="#003B6D"/>
<stop offset="1" stop-color="#005297"/>
</linearGradient>
</defs>
</svg>
