<svg width="23" height="26" viewBox="0 0 23 26" fill="none" xmlns="http://www.w3.org/2000/svg">
<path d="M7.18974 23.3022C8.2411 24.6388 9.89275 25.5 11.75 25.5C13.6073 25.5 15.2589 24.6388 16.3102 23.3022C13.283 23.7125 10.217 23.7125 7.18974 23.3022Z" fill="white"/>
<path d="M20.1864 9.25V10.1301C20.1864 11.1864 20.4879 12.219 21.0527 13.0978L22.437 15.2515C23.7015 17.2186 22.7362 19.8924 20.537 20.5145C14.7841 22.1418 8.71592 22.1418 2.96295 20.5145C0.763813 19.8924 -0.201474 17.2186 1.06295 15.2515L2.44725 13.0978C3.01215 12.219 3.31359 11.1864 3.31359 10.1301V9.25C3.31359 4.41751 7.0907 0.5 11.75 0.5C16.4092 0.5 20.1864 4.41751 20.1864 9.25Z" fill="white"/>
</svg>
