<svg width="20" height="21" viewBox="0 0 20 21" fill="none" xmlns="http://www.w3.org/2000/svg">
<path d="M9.17367 1.58049C9.43547 0.964583 9.56643 0.656628 9.74873 0.561795C9.90705 0.479402 10.093 0.479402 10.2513 0.561795C10.4336 0.656628 10.5646 0.964583 10.8264 1.58049L12.9117 6.4863C12.9892 6.66838 13.0279 6.75941 13.0878 6.82913C13.1407 6.89082 13.2055 6.94016 13.2778 6.97394C13.3596 7.01212 13.4541 7.02258 13.6432 7.0435L18.7371 7.60727C19.3766 7.67804 19.6963 7.71342 19.8387 7.86591C19.9623 7.99836 20.0197 8.18383 19.9939 8.36721C19.9643 8.57829 19.7255 8.80396 19.2478 9.25542L15.4427 12.8512C15.3015 12.9846 15.2308 13.0513 15.1862 13.1326C15.1466 13.2046 15.1218 13.2844 15.1136 13.3669C15.1042 13.4602 15.1239 13.5577 15.1633 13.7528L16.2261 19.007C16.3596 19.6666 16.4263 19.9964 16.332 20.1855C16.25 20.3498 16.0996 20.4644 15.9253 20.4953C15.7247 20.5309 15.4462 20.3625 14.8891 20.0256L10.452 17.342C10.2874 17.2424 10.205 17.1927 10.1175 17.1731C10.04 17.156 9.95998 17.156 9.88251 17.1731C9.79498 17.1927 9.71265 17.2424 9.54799 17.342L5.11095 20.0256C4.5539 20.3625 4.27537 20.5309 4.07474 20.4953C3.90046 20.4644 3.75 20.3498 3.66808 20.1855C3.57378 19.9964 3.64049 19.6666 3.77392 19.007L4.83669 13.7528C4.87613 13.5577 4.89586 13.4602 4.88649 13.3669C4.8782 13.2844 4.85347 13.2046 4.81389 13.1326C4.76916 13.0513 4.69855 12.9846 4.55734 12.8512L0.752309 9.25542C0.274608 8.80396 0.035752 8.57829 0.00605475 8.36721C-0.0197296 8.18383 0.0377312 7.99836 0.161383 7.86591C0.30374 7.71342 0.6235 7.67804 1.26302 7.60727L6.35689 7.0435C6.54596 7.02258 6.64048 7.01212 6.72222 6.97394C6.79454 6.94016 6.85929 6.89082 6.91229 6.82913C6.97217 6.75941 7.01087 6.66838 7.08828 6.4863L9.17367 1.58049Z" fill="#003B6D"/>
</svg>
