<svg width="350" height="270" viewBox="0 0 350 270" fill="none" xmlns="http://www.w3.org/2000/svg">
<g opacity="0.5">
<path d="M174.811 146.584L248.298 221.039C252.66 225.459 252.66 232.691 248.298 237.111C243.936 241.53 236.798 241.53 232.436 237.111L158.949 162.655C154.587 158.236 154.587 151.003 158.949 146.584C163.311 142.164 170.449 142.164 174.811 146.584Z" fill="url(#paint0_linear_275_1766)"/>
<path d="M107.636 52.2002L156.414 101.622C159.31 104.555 159.31 109.356 156.414 112.29C153.519 115.223 148.781 115.223 145.886 112.29L97.1068 62.868C94.2113 59.9343 94.2113 55.1339 97.1068 52.2004C100.002 49.2666 104.74 49.2666 107.636 52.2002Z" fill="url(#paint1_linear_275_1766)"/>
<path d="M219.582 71.4821L281.027 133.737C287.823 140.622 287.823 151.889 281.027 158.774H281.027C274.231 165.659 263.111 165.659 256.315 158.774L194.871 96.5194C188.075 89.6342 188.075 78.3674 194.871 71.4823C201.666 64.5969 212.786 64.5969 219.582 71.4821Z" fill="url(#paint2_linear_275_1766)"/>
<path d="M79.1338 102.091L152.621 176.546C156.983 180.966 156.983 188.198 152.621 192.618C148.259 197.037 141.121 197.037 136.758 192.618L63.2716 118.162C58.9095 113.743 58.9095 106.511 63.2716 102.091C67.6337 97.6713 74.7717 97.6713 79.1338 102.091Z" fill="url(#paint3_linear_275_1766)"/>
<path d="M172.462 104.294L204.952 137.213C207.34 139.632 207.34 143.591 204.952 146.011C202.564 148.43 198.656 148.43 196.268 146.011L163.778 113.092C161.39 110.673 161.39 106.713 163.778 104.294C166.166 101.874 170.074 101.874 172.462 104.294Z" fill="url(#paint4_linear_275_1766)"/>
<path d="M109.278 174.777L141.768 207.696C144.156 210.115 144.156 214.075 141.768 216.494C139.38 218.914 135.472 218.914 133.084 216.494L100.594 183.575C98.2059 181.156 98.2059 177.197 100.594 174.777C102.982 172.358 106.89 172.358 109.278 174.777Z" fill="url(#paint5_linear_275_1766)"/>
</g>
<g clip-path="url(#clip0_275_1766)">
<path d="M80.0995 139.3L92.076 196.399L100.436 236.258C100.663 237.339 101.722 238.027 102.802 237.794L277.761 200.108C278.841 199.875 279.532 198.81 279.305 197.729L258.876 100.329C258.581 98.9237 256.947 98.2855 255.773 99.1173L178.65 153.76C178.211 154.071 177.665 154.193 177.137 154.097L82.42 136.909C81.0217 136.655 79.8072 137.906 80.0995 139.3Z" fill="white"/>
<path d="M257.1 99.1829C257.036 99.1968 256.969 99.1903 256.908 99.1644L156.879 56.3904C156.574 56.2611 156.238 56.2293 155.916 56.2993C155.593 56.3694 155.3 56.5379 155.075 56.7822L81.4877 136.95C81.4295 137.013 81.3488 137.05 81.2635 137.054C81.1781 137.057 81.095 137.025 81.0324 136.966C80.9699 136.907 80.933 136.825 80.93 136.739C80.9269 136.652 80.9579 136.568 81.0161 136.504L154.603 56.3368C154.918 55.9949 155.329 55.759 155.781 55.661C156.232 55.5629 156.703 55.6074 157.129 55.7884L257.158 98.5623C257.221 98.5893 257.274 98.6361 257.31 98.6958C257.345 98.7556 257.36 98.8251 257.354 98.8944C257.347 98.9636 257.319 99.0289 257.273 99.0808C257.228 99.1327 257.167 99.1685 257.1 99.1829Z" fill="#AAAAAA"/>
<path d="M156.043 55.7158L81.1331 137.04L177.752 154.424L257.598 99.0289L156.043 55.7158Z" fill="#E6E6E6"/>
<path d="M86.9 138.124L156.425 58.3003L250.853 102.809L184.57 171.292L139.65 170.616L86.9 138.124Z" fill="#E6E6E6"/>
<path d="M151.491 209.049L110.714 217.832C110.464 217.886 110.206 217.89 109.954 217.843C109.702 217.796 109.462 217.699 109.247 217.557C109.032 217.416 108.847 217.233 108.702 217.019C108.557 216.805 108.455 216.565 108.401 216.311C108.348 216.057 108.345 215.795 108.392 215.539C108.438 215.284 108.534 215.041 108.674 214.823C108.813 214.605 108.994 214.418 109.205 214.271C109.416 214.124 109.653 214.021 109.904 213.968L150.68 205.184C150.93 205.13 151.189 205.126 151.44 205.173C151.692 205.22 151.932 205.317 152.147 205.459C152.362 205.6 152.547 205.783 152.692 205.997C152.837 206.211 152.94 206.452 152.993 206.706C153.046 206.96 153.049 207.222 153.003 207.477C152.956 207.732 152.86 207.975 152.721 208.193C152.581 208.411 152.401 208.598 152.19 208.745C151.979 208.892 151.741 208.995 151.491 209.049Z" fill="url(#paint6_linear_275_1766)"/>
<path d="M123.601 206.373L108.972 209.525C108.721 209.579 108.463 209.582 108.211 209.535C107.96 209.488 107.719 209.391 107.505 209.25C107.29 209.109 107.105 208.926 106.959 208.712C106.814 208.498 106.712 208.257 106.659 208.003C106.606 207.749 106.602 207.487 106.649 207.232C106.696 206.977 106.792 206.733 106.931 206.516C107.071 206.298 107.251 206.11 107.462 205.964C107.673 205.817 107.911 205.714 108.161 205.66L122.791 202.509C123.041 202.455 123.3 202.451 123.551 202.498C123.803 202.545 124.043 202.642 124.258 202.783C124.473 202.925 124.658 203.107 124.803 203.321C124.948 203.535 125.05 203.776 125.104 204.03C125.157 204.284 125.16 204.546 125.114 204.801C125.067 205.057 124.971 205.3 124.832 205.518C124.692 205.735 124.512 205.923 124.301 206.07C124.089 206.217 123.852 206.32 123.601 206.373Z" fill="url(#paint7_linear_275_1766)"/>
<path d="M177.848 154.654C177.538 154.721 177.218 154.726 176.907 154.669L121.509 144.21L107.443 77.1518C107.32 76.5587 107.433 75.9401 107.758 75.4317C108.084 74.9234 108.595 74.5668 109.179 74.4402L206.836 53.4048C207.42 53.2795 208.03 53.3947 208.532 53.7249C209.033 54.0552 209.385 54.5736 209.51 55.1664L223.585 122.272L223.498 122.334L178.739 154.263C178.471 154.452 178.168 154.585 177.848 154.654Z" fill="white"/>
<path d="M177.882 154.813C177.551 154.885 177.21 154.89 176.878 154.829L121.374 144.351L107.286 77.1857C107.153 76.5502 107.275 75.8874 107.623 75.3428C107.972 74.7981 108.52 74.416 109.146 74.2804L206.802 53.245C207.429 53.1108 208.082 53.2341 208.619 53.588C209.157 53.9418 209.533 54.4973 209.667 55.1325L223.765 122.343L178.832 154.396C178.546 154.598 178.223 154.74 177.882 154.813ZM121.914 143.788L176.994 154.187C177.507 154.279 178.035 154.162 178.463 153.861L223.046 122.057L209.037 55.2682C208.939 54.8024 208.663 54.3951 208.269 54.1356C207.875 53.8761 207.396 53.7856 206.936 53.884L109.28 74.9194C108.821 75.0189 108.419 75.2991 108.163 75.6985C107.908 76.0979 107.819 76.584 107.916 77.05L121.914 143.788Z" fill="#AAAAAA"/>
<path d="M256.336 98.6795L256.273 98.6931L223.394 122.146L178.409 154.234C178.233 154.358 178.034 154.446 177.825 154.492C177.615 154.538 177.399 154.542 177.188 154.504L121.633 144.019L81.3099 136.407L81.248 136.394L81.1849 136.408C80.6004 136.534 80.0893 136.891 79.7639 137.399C79.4384 137.907 79.3251 138.526 79.4489 139.119L99.8224 236.253C99.9474 236.845 100.299 237.364 100.801 237.694C101.302 238.024 101.912 238.139 102.497 238.014L277.648 200.286C278.232 200.16 278.743 199.803 279.069 199.295C279.394 198.786 279.508 198.168 279.384 197.575L259.01 100.441C258.885 99.8483 258.534 99.3299 258.032 98.9996C257.531 98.6694 256.921 98.5543 256.336 98.6795ZM278.754 197.71C278.843 198.134 278.762 198.576 278.529 198.939C278.297 199.302 277.931 199.557 277.514 199.647L102.363 237.375C101.945 237.465 101.509 237.383 101.151 237.147C100.793 236.911 100.541 236.54 100.452 236.117L80.0789 138.983C79.9928 138.57 80.0676 138.139 80.2875 137.781C80.5075 137.422 80.8556 137.164 81.2591 137.059L121.778 144.709L177.069 155.147C177.667 155.255 178.282 155.119 178.781 154.768L223.539 122.839L256.533 99.305C256.943 99.2353 257.364 99.3286 257.708 99.5655C258.052 99.8024 258.293 100.165 258.38 100.577L278.754 197.71Z" fill="#AAAAAA"/>
<path d="M256.336 98.6795L256.273 98.6931L223.394 122.146L178.409 154.234C178.233 154.358 178.034 154.446 177.825 154.492C177.615 154.538 177.399 154.542 177.188 154.504L121.633 144.019L81.3099 136.407L81.248 136.394L81.1849 136.408C80.6004 136.534 80.0893 136.891 79.7639 137.399C79.4384 137.907 79.3251 138.526 79.4489 139.119L99.8224 236.253C99.9475 236.845 100.299 237.364 100.801 237.694C101.302 238.024 101.912 238.139 102.497 238.014L277.648 200.286C278.232 200.16 278.743 199.803 279.069 199.295C279.394 198.786 279.508 198.168 279.384 197.575L259.01 100.441C258.885 99.8483 258.534 99.3299 258.032 98.9996C257.531 98.6694 256.921 98.5543 256.336 98.6795ZM278.754 197.71C278.843 198.134 278.762 198.576 278.529 198.939C278.297 199.302 277.931 199.557 277.514 199.647L102.363 237.375C101.945 237.465 101.509 237.383 101.151 237.147C100.793 236.911 100.541 236.54 100.452 236.117L80.0789 138.983C79.9928 138.57 80.0676 138.139 80.2875 137.781C80.5075 137.422 80.8556 137.164 81.2591 137.059L121.778 144.709L177.069 155.147C177.667 155.255 178.282 155.119 178.781 154.768L223.539 122.839L256.533 99.305C256.943 99.2353 257.364 99.3286 257.708 99.5655C258.052 99.8024 258.293 100.165 258.38 100.577L278.754 197.71Z" fill="#AAAAAA"/>
<path d="M166.223 90.2682C157.747 92.0939 152.337 100.537 154.138 109.127M155.806 127.152L145.315 143.538M144.93 111.11C147.813 124.853 161.143 133.626 174.705 130.705C188.266 127.784 196.923 114.275 194.041 100.532C191.158 86.7883 177.828 78.0154 164.266 80.9366C150.704 83.8578 142.047 97.3669 144.93 111.11Z" stroke="url(#paint8_linear_275_1766)" stroke-width="4" stroke-linecap="round" stroke-linejoin="round"/>
</g>
<defs>
<linearGradient id="paint0_linear_275_1766" x1="149.205" y1="115.217" x2="279.763" y2="129.065" gradientUnits="userSpaceOnUse">
<stop stop-color="#003B6D"/>
<stop offset="1" stop-color="#005297"/>
</linearGradient>
<linearGradient id="paint1_linear_275_1766" x1="90.6388" y1="31.3797" x2="177.3" y2="40.5719" gradientUnits="userSpaceOnUse">
<stop stop-color="#003B6D"/>
<stop offset="1" stop-color="#005297"/>
</linearGradient>
<linearGradient id="paint2_linear_275_1766" x1="183.27" y1="38.1322" x2="314.451" y2="52.0467" gradientUnits="userSpaceOnUse">
<stop stop-color="#003B6D"/>
<stop offset="1" stop-color="#005297"/>
</linearGradient>
<linearGradient id="paint3_linear_275_1766" x1="53.5273" y1="70.7241" x2="184.086" y2="84.5726" gradientUnits="userSpaceOnUse">
<stop stop-color="#003B6D"/>
<stop offset="1" stop-color="#005297"/>
</linearGradient>
<linearGradient id="paint4_linear_275_1766" x1="158.966" y1="89.3863" x2="219.902" y2="95.8499" gradientUnits="userSpaceOnUse">
<stop stop-color="#003B6D"/>
<stop offset="1" stop-color="#005297"/>
</linearGradient>
<linearGradient id="paint5_linear_275_1766" x1="95.7819" y1="159.87" x2="156.718" y2="166.333" gradientUnits="userSpaceOnUse">
<stop stop-color="#003B6D"/>
<stop offset="1" stop-color="#005297"/>
</linearGradient>
<linearGradient id="paint6_linear_275_1766" x1="104.752" y1="213.911" x2="135.238" y2="238.699" gradientUnits="userSpaceOnUse">
<stop stop-color="#003B6D"/>
<stop offset="1" stop-color="#005297"/>
</linearGradient>
<linearGradient id="paint7_linear_275_1766" x1="104.775" y1="205.223" x2="127.018" y2="211.296" gradientUnits="userSpaceOnUse">
<stop stop-color="#003B6D"/>
<stop offset="1" stop-color="#005297"/>
</linearGradient>
<linearGradient id="paint8_linear_275_1766" x1="189.16" y1="58.678" x2="115.49" y2="82.4868" gradientUnits="userSpaceOnUse">
<stop stop-color="#003B6D"/>
<stop offset="1" stop-color="#005297"/>
</linearGradient>
<clipPath id="clip0_275_1766">
<rect width="183.68" height="167.047" fill="white" transform="matrix(0.977578 -0.210573 0.205281 0.978703 66 75)"/>
</clipPath>
</defs>
</svg>
