<svg width="130" height="131" viewBox="0 0 130 131" fill="none" xmlns="http://www.w3.org/2000/svg">
<path d="M65 128C79.4597 128 93.4721 122.986 104.65 113.813C115.827 104.64 123.478 91.875 126.299 77.6932C129.12 63.5113 126.936 48.79 120.12 36.0377C113.304 23.2854 102.277 13.291 88.9177 7.75753C75.5587 2.22404 60.6943 1.4938 46.8572 5.69123C33.0201 9.88865 21.0665 18.754 13.0332 30.7768C4.99977 42.7997 1.38366 57.236 2.80095 71.6261C4.21825 86.0161 10.5813 99.4696 20.8058 109.694" stroke="#D2D2D2" stroke-width="5" stroke-linecap="round"/>
<path d="M100.351 39.1992L57.9178 90.1186C57.2622 90.9053 56.9344 91.2986 56.4939 91.3186C56.0533 91.3386 55.6912 90.9765 54.9671 90.2524L30.2148 65.5001" stroke="url(#paint0_linear_1235_1776)" stroke-width="5" stroke-linecap="round"/>
<defs>
<linearGradient id="paint0_linear_1235_1776" x1="105.085" y1="24.0114" x2="10.4626" y2="37.57" gradientUnits="userSpaceOnUse">
<stop stop-color="#003B6D"/>
<stop offset="1" stop-color="#005297"/>
</linearGradient>
</defs>
</svg>
