<svg width="93" height="98" viewBox="0 0 93 98" fill="none" xmlns="http://www.w3.org/2000/svg">
<g filter="url(#filter0_d_198_3159)">
<path d="M87.5869 31.8955C86.8064 31.8955 86.174 32.5281 86.174 33.3084V41.3146H78.1677V44.1404H87.5869C88.3674 44.1404 88.9999 43.5077 88.9999 42.7274V33.3082C88.9999 32.5278 88.3674 31.8955 87.5869 31.8955Z" fill="#003B6D"/>
<path d="M7.05343 41.3146V33.3084C7.05343 32.5281 6.42095 31.8955 5.64048 31.8955C4.86002 31.8955 4.22754 32.5281 4.22754 33.3084V42.7276C4.22754 43.5079 4.86002 44.1405 5.64048 44.1405H15.0597V41.3148L7.05343 41.3146Z" fill="#003B6D"/>
<path d="M80.052 76.38H67.0705V90H80.052V76.38Z" fill="#1E1E1E"/>
<path d="M26.1571 76.38H13.1756V90H26.1571V76.38Z" fill="#1E1E1E"/>
<path d="M76.408 7.97041L78.8363 19.3563H46.6134H14.3906L16.8189 7.97041C17.2502 5.94341 19.2998 4.28571 21.372 4.28571H71.8548C73.9271 4.28571 75.9767 5.94341 76.408 7.97041Z" fill="#003B6D"/>
<path d="M78.8363 19.3563H14.3906L9.40806 42.7273V57.2327L28.041 64.7774H35.5763L46.6137 59.8795L57.6511 64.7774H65.1864L83.8193 57.2327V42.7273L78.8363 19.3563Z" fill="#003B6D"/>
<path d="M83.8193 57.2327L83.8195 64.7775L74.5031 68.5451L65.1864 64.7774L67.0215 59.8796C67.566 58.4235 69.2841 57.2328 70.8382 57.2328L83.8193 57.2327Z" fill="#F7DF8E"/>
<path d="M26.206 59.8796L28.041 64.7774L18.7245 68.5451L9.40806 64.7775V57.2327L22.3896 57.2328C23.9435 57.2328 25.6616 58.4233 26.206 59.8796Z" fill="#F7DF8E"/>
<path d="M59.4864 59.8792L57.6511 64.7774L46.6142 68.5447L35.5763 64.7774L33.742 59.8792H59.4864Z" fill="#D1FCFF"/>
<path d="M9.40806 64.7775V76.3799C9.40806 78.4522 11.1034 80.1475 13.1756 80.1475H80.0516C82.1238 80.1475 83.8192 78.4522 83.8192 76.3799L83.8195 64.7775H9.40806Z" fill="#496BAE"/>
<path d="M24.2735 74.0166H15.0594C14.2789 74.0166 13.6465 73.3839 13.6465 72.6036C13.6465 71.8233 14.2789 71.1907 15.0594 71.1907H24.2734C25.0538 71.1907 25.6863 71.8233 25.6863 72.6036C25.6863 73.3839 25.054 74.0166 24.2735 74.0166Z" fill="#D1FCFF"/>
<path d="M61.4184 74.0166H31.8088C31.0284 74.0166 30.3959 73.3839 30.3959 72.6036C30.3959 71.8233 31.0284 71.1907 31.8088 71.1907H61.4184C62.1989 71.1907 62.8313 71.8233 62.8313 72.6036C62.8313 73.3839 62.1987 74.0166 61.4184 74.0166Z" fill="#003B6D"/>
<path d="M78.1682 74.0166H68.9543C68.1738 74.0166 67.5414 73.3839 67.5414 72.6036C67.5414 71.8233 68.1738 71.1907 68.9543 71.1907H78.1682C78.9487 71.1907 79.5812 71.8233 79.5812 72.6036C79.5812 73.3839 78.9487 74.0166 78.1682 74.0166Z" fill="#D1FCFF"/>
<path d="M16.6142 22.1819L12.2339 42.727H80.9938L76.6135 22.1819H16.6142Z" fill="#D1FCFF"/>
<path d="M15.5847 6.42856V8.57142V6.42856ZM16.1204 0V2.14285V0ZM16.6561 7.49999H14.5132H16.6561ZM17.1918 1.07143H15.049H17.1918ZM19.8704 0L20.8094 2.38091C20.91 2.63616 20.9604 2.76378 21.0375 2.87139C21.1058 2.96678 21.1893 3.0503 21.2847 3.11862C21.3923 3.19569 21.5199 3.24605 21.7752 3.34671L24.1561 4.28571L21.7752 5.22471C21.5199 5.32537 21.3923 5.37572 21.2847 5.45281C21.1893 5.52112 21.1058 5.60463 21.0375 5.70005C20.9604 5.80762 20.91 5.93528 20.8094 6.19049L19.8704 8.57142L18.9314 6.19049C18.8307 5.93528 18.7804 5.80762 18.7033 5.70005C18.635 5.60463 18.5514 5.52112 18.456 5.45281C18.3485 5.37572 18.2208 5.32537 17.9656 5.22471L15.5847 4.28571L17.9656 3.34671C18.2208 3.24605 18.3485 3.19569 18.456 3.11862C18.5514 3.0503 18.635 2.96678 18.7033 2.87139C18.7804 2.76378 18.8307 2.63616 18.9314 2.38091L19.8704 0Z" fill="#E8B77E"/>
<path d="M18.9894 13.2857V14.5714V13.2857ZM18.6561 9.42856V10.7143V9.42856ZM18.3228 13.9286H19.6561H18.3228ZM17.9894 10.0714H19.3228H17.9894ZM16.3228 9.42856L15.7385 10.8571C15.6759 11.0103 15.6445 11.0868 15.5966 11.1514C15.5541 11.2086 15.5021 11.2587 15.4427 11.2997C15.3758 11.346 15.2964 11.3762 15.1376 11.4366L13.6561 12L15.1376 12.5634C15.2964 12.6238 15.3758 12.654 15.4427 12.7002C15.5021 12.7412 15.5541 12.7913 15.5966 12.8486C15.6445 12.9131 15.6759 12.9897 15.7385 13.1429L16.3228 14.5714L16.907 13.1429C16.9697 12.9897 17.001 12.9131 17.049 12.8486C17.0915 12.7913 17.1434 12.7412 17.2028 12.7002C17.2697 12.654 17.3492 12.6238 17.508 12.5634L18.9894 12L17.508 11.4366C17.3492 11.3762 17.2697 11.346 17.2028 11.2997C17.1434 11.2587 17.0915 11.2086 17.049 11.1514C17.001 11.0868 16.9697 11.0103 16.907 10.8571L16.3228 9.42856Z" fill="#E8B77E"/>
<path d="M22.037 9.85713V11.1428V9.85713ZM22.3704 5.99999V7.2857V5.99999ZM22.7037 10.5H21.3704H22.7037ZM23.037 6.64285H21.7037H23.037ZM24.7037 5.99999L25.288 7.42854C25.3506 7.58169 25.3819 7.65826 25.4299 7.72283C25.4724 7.78006 25.5244 7.83017 25.5837 7.87116C25.6507 7.91741 25.7301 7.94762 25.8889 8.00802L27.3704 8.57142L25.8889 9.13482C25.7301 9.19521 25.6507 9.22543 25.5837 9.27168C25.5244 9.31266 25.4724 9.36277 25.4299 9.42002C25.3819 9.48456 25.3506 9.56116 25.288 9.71429L24.7037 11.1428L24.1194 9.71429C24.0568 9.56116 24.0255 9.48456 23.9775 9.42002C23.935 9.36277 23.883 9.31266 23.8237 9.27168C23.7567 9.22543 23.6773 9.19521 23.5185 9.13482L22.037 8.57142L23.5185 8.00802C23.6773 7.94762 23.7567 7.91741 23.8237 7.87116C23.883 7.83017 23.935 7.78006 23.9775 7.72283C24.0255 7.65826 24.0568 7.58169 24.1194 7.42854L24.7037 5.99999Z" fill="#E8B77E"/>
</g>
<defs>
<filter id="filter0_d_198_3159" x="0.227539" y="0" width="92.7723" height="98" filterUnits="userSpaceOnUse" color-interpolation-filters="sRGB">
<feFlood flood-opacity="0" result="BackgroundImageFix"/>
<feColorMatrix in="SourceAlpha" type="matrix" values="0 0 0 0 0 0 0 0 0 0 0 0 0 0 0 0 0 0 127 0" result="hardAlpha"/>
<feOffset dy="4"/>
<feGaussianBlur stdDeviation="2"/>
<feComposite in2="hardAlpha" operator="out"/>
<feColorMatrix type="matrix" values="0 0 0 0 0 0 0 0 0 0 0 0 0 0 0 0 0 0 0.25 0"/>
<feBlend mode="normal" in2="BackgroundImageFix" result="effect1_dropShadow_198_3159"/>
<feBlend mode="normal" in="SourceGraphic" in2="effect1_dropShadow_198_3159" result="shape"/>
</filter>
</defs>
</svg>
