<svg width="40" height="41" viewBox="0 0 40 41" fill="none" xmlns="http://www.w3.org/2000/svg">
<path d="M37.4354 18.0868C37.114 15.7689 36.3033 13.4826 35.0899 11.4753C33.9045 9.51389 32.3006 7.75802 30.4519 6.3974C28.5756 5.0166 26.3924 4.00441 24.1386 3.47002C22.8229 3.15819 21.4644 3 20.1009 3C20.0673 3 20.0336 3.00114 20 3.0014C19.9663 3.00114 19.9327 3 19.899 3C18.5357 3 17.1772 3.15819 15.8613 3.47002C13.6073 4.00433 11.4241 5.0166 9.54806 6.3974C7.69943 7.75802 6.09563 9.51389 4.91015 11.4753C3.69688 13.4826 2.88586 15.7689 2.56468 18.0868C2.23241 20.4859 2.40579 22.9784 3.06649 25.2951C3.69994 27.515 4.80454 29.6449 6.26063 31.4545C7.70135 33.2448 9.52614 34.7719 11.5373 35.8704C13.6043 36.9993 15.9359 37.7101 18.28 37.9259C18.8134 37.975 19.3561 38 19.893 38H20.1066C20.6436 38 21.1863 37.9751 21.7199 37.9259C24.064 37.7099 26.3953 36.9993 28.4623 35.8704C30.4736 34.7719 32.2981 33.2448 33.7391 31.4545C35.1953 29.6449 36.2997 27.515 36.9331 25.2951C37.5941 22.9785 37.7676 20.486 37.4354 18.0868ZM16.9867 33.9253C14.6809 33.4254 12.5257 32.3247 10.7541 30.7416C8.9948 29.1689 7.66248 27.1657 6.90142 24.9481C6.00663 22.3411 5.92583 19.4416 6.67353 16.7839C7.45425 17.4624 8.29357 18.1838 9.14233 18.8633C9.80714 19.3954 10.4751 19.9053 11.1277 20.3791C11.4508 20.6136 11.7896 20.8512 12.1344 21.0853C12.3028 21.1995 12.4718 21.3116 12.6371 21.4186C12.7123 21.4675 12.7882 21.516 12.8637 21.5641C12.9497 21.6186 12.9715 21.6447 13.0105 21.7392C13.673 23.3464 14.9353 24.4847 15.8779 25.1565C16.1976 25.3846 16.5312 25.5922 16.8691 25.7734C16.9624 25.8234 17.0568 25.872 17.1521 25.9185C17.1595 26.0066 17.1672 26.0945 17.1756 26.1816C17.1935 26.3718 17.2124 26.5613 17.2334 26.751C17.3192 27.5382 17.4311 28.3514 17.5756 29.2371C17.8322 30.8106 18.1589 32.425 18.5743 34.1727C18.5742 34.1727 18.0871 34.1507 16.9867 33.9253ZM19.7769 15.5695C18.5721 15.5695 17.5185 15.6807 16.5561 15.9099C16.2529 15.9821 15.9627 16.0676 15.6937 16.1639C15.5546 16.2135 15.4173 16.2676 15.2858 16.3247C15.2259 16.3504 15.1665 16.3773 15.1075 16.405C15.0447 16.4344 14.9884 16.4107 14.9329 16.3829C14.9187 16.3755 14.9031 16.3678 14.8868 16.3607C14.2141 16.0616 13.4706 15.7597 12.6149 15.4382C11.1154 14.8746 9.51802 14.3499 7.86714 13.8785C8.97515 11.8732 10.5818 10.1595 12.5138 8.92254C14.7197 7.51004 17.2736 6.76348 19.899 6.76348H20.101C22.7264 6.76348 25.2803 7.51004 27.4862 8.92254C29.4182 10.1595 31.025 11.8732 32.1329 13.8784C30.4821 14.3498 28.8846 14.8746 27.3851 15.4382C26.5294 15.7597 25.7861 16.0616 25.1132 16.3607C25.0968 16.3678 25.0815 16.3755 25.0672 16.3829C25.0115 16.4107 24.9554 16.4344 24.8925 16.405C24.8336 16.3773 24.7742 16.3504 24.7144 16.3247C24.5827 16.2677 24.4454 16.2136 24.3063 16.1639C24.0374 16.0675 23.7474 15.9821 23.444 15.9099C22.4816 15.6807 21.428 15.5695 20.2233 15.5695H19.7769ZM33.0987 24.9481C32.3376 27.1658 31.0052 29.1689 29.246 30.7416C27.4747 32.3247 25.3194 33.4257 23.0135 33.9253C21.9711 34.141 21.4259 34.1727 21.4259 34.1727C21.8412 32.4249 22.168 30.8106 22.4247 29.237C22.5691 28.3514 22.6812 27.5382 22.7671 26.7509C22.7878 26.5613 22.8068 26.3717 22.8248 26.1816C22.8332 26.0943 22.8409 26.0066 22.8482 25.9185C22.9438 25.8718 23.0377 25.8233 23.1312 25.7734C23.4691 25.592 23.8027 25.3844 24.1224 25.1564C25.065 24.4847 26.3272 23.3464 26.9899 21.7391C27.0287 21.6446 27.0505 21.6185 27.1366 21.564C27.212 21.516 27.2878 21.4675 27.3634 21.4185C27.5286 21.3113 27.6976 21.1992 27.866 21.0851C28.2108 20.8511 28.5496 20.6136 28.8727 20.379C29.5253 19.9052 30.1933 19.3953 30.8578 18.8632C31.707 18.1838 32.5462 17.4623 33.3269 16.7838C34.0743 19.4416 33.9935 22.3411 33.0987 24.9481Z" fill="url(#paint0_linear_296_799)"/>
<defs>
<linearGradient id="paint0_linear_296_799" x1="0.0243056" y1="-7.10563" x2="47.9284" y2="-1.92809" gradientUnits="userSpaceOnUse">
<stop stop-color="#003B6D"/>
<stop offset="1" stop-color="#005297"/>
</linearGradient>
</defs>
</svg>
